<?xml version="1.0" encoding="UTF-8" standalone="no"?>
<!-- Created with Inkscape (http://www.inkscape.org/) -->

<svg
   xmlns:dc="http://purl.org/dc/elements/1.1/"
   xmlns:cc="http://creativecommons.org/ns#"
   xmlns:rdf="http://www.w3.org/1999/02/22-rdf-syntax-ns#"
   xmlns:svg="http://www.w3.org/2000/svg"
   xmlns="http://www.w3.org/2000/svg"
   xmlns:xlink="http://www.w3.org/1999/xlink"
   xmlns:sodipodi="http://sodipodi.sourceforge.net/DTD/sodipodi-0.dtd"
   xmlns:inkscape="http://www.inkscape.org/namespaces/inkscape"
   width="40"
   height="40"
   id="svg2"
   version="1.1"
   inkscape:version="0.48.4 r9939"
   sodipodi:docname="apptshine.svg"
   inkscape:export-filename="/media/tkwmint/SD_MAIN/CMPS 450-01 Senior Project/icons/apptshine.png"
   inkscape:export-xdpi="90"
   inkscape:export-ydpi="90">
  <defs
     id="defs4">
    <linearGradient
       id="linearGradient4096">
      <stop
         id="stop4098"
         offset="0"
         style="stop-color:#ffff77;stop-opacity:1;" />
      <stop
         style="stop-color:#ffff77;stop-opacity:0.49803922;"
         offset="0"
         id="stop4102" />
      <stop
         id="stop4100"
         offset="1"
         style="stop-color:#ffff77;stop-opacity:0;" />
    </linearGradient>
    <linearGradient
       id="linearGradient3957">
      <stop
         style="stop-color:#ff3d24;stop-opacity:1;"
         offset="0"
         id="stop3959" />
      <stop
         style="stop-color:#ff0000;stop-opacity:1;"
         offset="1"
         id="stop3961" />
    </linearGradient>
    <linearGradient
       id="linearGradient3761">
      <stop
         style="stop-color:#ffffff;stop-opacity:1;"
         offset="0"
         id="stop3763" />
      <stop
         style="stop-color:#c9d2ff;stop-opacity:1;"
         offset="1"
         id="stop3765" />
    </linearGradient>
    <linearGradient
       inkscape:collect="always"
       xlink:href="#linearGradient3761"
       id="linearGradient3767"
       x1="25"
       y1="7"
       x2="15"
       y2="29"
       gradientUnits="userSpaceOnUse" />
    <linearGradient
       inkscape:collect="always"
       xlink:href="#linearGradient3957"
       id="linearGradient3963"
       x1="30"
       y1="9"
       x2="25"
       y2="20"
       gradientUnits="userSpaceOnUse" />
    <radialGradient
       inkscape:collect="always"
       xlink:href="#linearGradient4096"
       id="radialGradient4091"
       cx="29"
       cy="11"
       fx="29"
       fy="11"
       r="7"
       gradientTransform="matrix(1,0,0,1.1428571,0,-1.5714286)"
       gradientUnits="userSpaceOnUse"
       spreadMethod="pad" />
  </defs>
  <sodipodi:namedview
     id="base"
     pagecolor="#c4c4c4"
     bordercolor="#666666"
     borderopacity="1.0"
     inkscape:pageopacity="1"
     inkscape:pageshadow="2"
     inkscape:zoom="1"
     inkscape:cx="35.881158"
     inkscape:cy="21.311972"
     inkscape:document-units="px"
     inkscape:current-layer="layer5"
     showgrid="false"
     inkscape:window-width="1920"
     inkscape:window-height="1028"
     inkscape:window-x="0"
     inkscape:window-y="0"
     inkscape:window-maximized="1">
    <inkscape:grid
       type="xygrid"
       id="grid2985"
       empspacing="5"
       visible="true"
       enabled="true"
       snapvisiblegridlinesonly="true" />
  </sodipodi:namedview>
  <metadata
     id="metadata7">
    <rdf:RDF>
      <cc:Work
         rdf:about="">
        <dc:format>image/svg+xml</dc:format>
        <dc:type
           rdf:resource="http://purl.org/dc/dcmitype/StillImage" />
        <dc:title />
      </cc:Work>
    </rdf:RDF>
  </metadata>
  <g
     inkscape:label="Layer 1"
     inkscape:groupmode="layer"
     id="layer1"
     transform="translate(0,-1012.3622)"
     style="display:inline">
    <path
       sodipodi:type="arc"
       style="fill:#000000;fill-opacity:1;fill-rule:evenodd;stroke:none"
       id="path2987"
       sodipodi:cx="20"
       sodipodi:cy="20"
       sodipodi:rx="20"
       sodipodi:ry="20"
       d="M 40,20 C 40,31.045695 31.045695,40 20,40 8.954305,40 0,31.045695 0,20 0,8.954305 8.954305,0 20,0 31.045695,0 40,8.954305 40,20 z"
       transform="translate(0,1012.3622)" />
    <path
       sodipodi:type="arc"
       style="fill:#ffffff;fill-opacity:1;fill-rule:evenodd;stroke:none"
       id="path3757"
       sodipodi:cx="20"
       sodipodi:cy="20"
       sodipodi:rx="19"
       sodipodi:ry="19"
       d="M 39,20 C 39,30.49341 30.49341,39 20,39 9.5065898,39 1,30.49341 1,20 1,9.5065898 9.5065898,1 20,1 30.49341,1 39,9.5065898 39,20 z"
       transform="translate(0,1012.3622)" />
    <path
       sodipodi:type="arc"
       style="fill:url(#linearGradient3767);fill-opacity:1;fill-rule:evenodd;stroke:none"
       id="path3759"
       sodipodi:cx="20"
       sodipodi:cy="20"
       sodipodi:rx="18"
       sodipodi:ry="18"
       d="M 38,20 C 38,29.941125 29.941125,38 20,38 10.058875,38 2,29.941125 2,20 2,10.058875 10.058875,2 20,2 c 9.941125,0 18,8.058875 18,18 z"
       transform="translate(0,1012.3622)" />
    <rect
       style="fill:#000000;fill-opacity:1;fill-rule:evenodd;stroke:none"
       id="rect3791"
       width="3"
       height="1"
       x="2"
       y="1031.8622" />
    <path
       sodipodi:type="arc"
       style="fill:url(#linearGradient3963);fill-opacity:1;fill-rule:evenodd;stroke:none"
       id="path3947"
       sodipodi:cx="20"
       sodipodi:cy="20"
       sodipodi:rx="18"
       sodipodi:ry="18"
       d="M 20.000107,2 C 29.941232,2.0000588 38.000059,10.058981 38,20.000107 c -1.9e-5,3.195518 -0.850724,6.333429 -2.464727,9.091388 L 20,20 z"
       transform="translate(0,1012.3622)"
       sodipodi:start="4.7123949"
       sodipodi:end="6.8126635" />
    <rect
       style="fill:#000000;fill-opacity:1;fill-rule:evenodd;stroke:none"
       id="rect3795"
       width="3"
       height="1"
       x="35"
       y="1031.8622" />
    <rect
       style="fill:#000000;fill-opacity:1;fill-rule:evenodd;stroke:none"
       id="rect3797"
       width="1"
       height="3"
       x="19.5"
       y="1047.3622" />
    <path
       sodipodi:type="arc"
       style="fill:#000000;fill-opacity:1;fill-rule:evenodd;stroke:none"
       id="path3945"
       sodipodi:cx="20"
       sodipodi:cy="20"
       sodipodi:rx="1"
       sodipodi:ry="1"
       d="m 21,20 c 0,0.552285 -0.447715,1 -1,1 -0.552285,0 -1,-0.447715 -1,-1 0,-0.552285 0.447715,-1 1,-1 0.552285,0 1,0.447715 1,1 z"
       transform="translate(0,1012.3622)" />
    <path
       sodipodi:nodetypes="cccccc"
       inkscape:connector-curvature="0"
       id="path3846"
       d="m 20,1014.3622 0.5,1 0,17 -1,0 0,-17 z"
       style="fill:#000000;fill-opacity:1;stroke:none" />
  </g>
  <g
     inkscape:groupmode="layer"
     id="layer3"
     inkscape:label="minutes"
     style="display:none">
    <path
       sodipodi:nodetypes="cccccc"
       inkscape:connector-curvature="0"
       id="path3849"
       d="m 31.033166,26.283495 -1.116023,-0.06699 -10.392308,-6.000001 0.500003,-0.866022 10.392305,6.000001 z"
       style="fill:#000000;fill-opacity:1;stroke:none;display:inline" />
  </g>
  <g
     inkscape:groupmode="layer"
     id="layer4"
     inkscape:label="minhide"
     style="display:none">
    <rect
       transform="matrix(-0.5,0.8660254,-0.8660254,-0.5,0,0)"
       y="-27.820526"
       x="-10.679495"
       height="1"
       width="3"
       id="rect3851"
       style="fill:#000000;fill-opacity:1;fill-rule:evenodd;stroke:none;display:inline" />
    <rect
       transform="matrix(-0.5,0.8660254,-0.8660254,-0.5,0,0)"
       y="-27.820526"
       x="22.320505"
       height="1"
       width="3"
       id="rect3853"
       style="fill:#000000;fill-opacity:1;fill-rule:evenodd;stroke:none;display:inline" />
    <rect
       transform="matrix(-0.5,0.8660254,-0.8660254,-0.5,0,0)"
       y="-12.320527"
       x="6.8205047"
       height="3"
       width="1"
       id="rect3855"
       style="fill:#000000;fill-opacity:1;fill-rule:evenodd;stroke:none;display:inline" />
    <path
       sodipodi:type="arc"
       style="fill:#000000;fill-opacity:1;fill-rule:evenodd;stroke:none;display:inline"
       id="path3859"
       sodipodi:cx="19.5"
       sodipodi:cy="4"
       sodipodi:rx="0.5"
       sodipodi:ry="1"
       d="m 20,4 a 0.5,1 0 1 1 -1,0 0.5,1 0 1 1 1,0 z"
       transform="matrix(0.49999999,0.8660254,-0.8660254,0.49999999,-0.14230351,9.1125049)" />
    <path
       sodipodi:type="arc"
       style="fill:#000000;fill-opacity:1;fill-rule:evenodd;stroke:none;display:inline"
       id="path3861"
       sodipodi:cx="4"
       sodipodi:cy="18.5"
       sodipodi:rx="1"
       sodipodi:ry="0.5"
       d="m 5,18.5 a 1,0.5 0 1 1 -2,0 1,0.5 0 1 1 2,0 z"
       transform="matrix(0.49999999,0.8660254,-0.8660254,0.49999999,26.021471,-6.570508)" />
    <path
       transform="matrix(0.49999999,0.8660254,-0.8660254,0.49999999,42.021471,21.142305)"
       d="m 5,18.5 a 1,0.5 0 1 1 -2,0 1,0.5 0 1 1 2,0 z"
       sodipodi:ry="0.5"
       sodipodi:rx="1"
       sodipodi:cy="18.5"
       sodipodi:cx="4"
       id="path3863"
       style="fill:#000000;fill-opacity:1;fill-rule:evenodd;stroke:none;display:inline"
       sodipodi:type="arc" />
    <path
       transform="matrix(0.49999999,0.8660254,-0.8660254,0.49999999,27.570509,-6.8874951)"
       d="m 20,4 a 0.5,1 0 1 1 -1,0 0.5,1 0 1 1 1,0 z"
       sodipodi:ry="1"
       sodipodi:rx="0.5"
       sodipodi:cy="4"
       sodipodi:cx="19.5"
       id="path3865"
       style="fill:#000000;fill-opacity:1;fill-rule:evenodd;stroke:none;display:inline"
       sodipodi:type="arc" />
    <path
       transform="translate(0.50000129,32)"
       d="m 20,4 a 0.5,1 0 1 1 -1,0 0.5,1 0 1 1 1,0 z"
       sodipodi:ry="1"
       sodipodi:rx="0.5"
       sodipodi:cy="4"
       sodipodi:cx="19.5"
       id="path3867"
       style="fill:#000000;fill-opacity:1;fill-rule:evenodd;stroke:none;display:inline"
       sodipodi:type="arc" />
    <path
       transform="translate(1.1810968e-6,1.5)"
       d="m 5,18.5 a 1,0.5 0 1 1 -2,0 1,0.5 0 1 1 2,0 z"
       sodipodi:ry="0.5"
       sodipodi:rx="1"
       sodipodi:cy="18.5"
       sodipodi:cx="4"
       id="path3869"
       style="fill:#000000;fill-opacity:1;fill-rule:evenodd;stroke:none;display:inline"
       sodipodi:type="arc" />
    <path
       sodipodi:type="arc"
       style="fill:#000000;fill-opacity:1;fill-rule:evenodd;stroke:none;display:inline"
       id="path3871"
       sodipodi:cx="4"
       sodipodi:cy="18.5"
       sodipodi:rx="1"
       sodipodi:ry="0.5"
       d="m 5,18.5 a 1,0.5 0 1 1 -2,0 1,0.5 0 1 1 2,0 z"
       transform="translate(32.000001,1.5000002)" />
    <path
       sodipodi:type="arc"
       style="fill:#000000;fill-opacity:1;fill-rule:evenodd;stroke:none;display:inline"
       id="path3873"
       sodipodi:cx="19.5"
       sodipodi:cy="4"
       sodipodi:rx="0.5"
       sodipodi:ry="1"
       d="m 20,4 a 0.5,1 0 1 1 -1,0 0.5,1 0 1 1 1,0 z"
       transform="translate(0.50000139,2.810968e-7)" />
    <rect
       style="fill:#000000;fill-opacity:1;fill-rule:evenodd;stroke:none;display:inline"
       id="rect3902"
       width="1"
       height="3"
       x="6.8205075"
       y="-45.320507"
       transform="matrix(-0.5,0.8660254,-0.8660254,-0.5,0,0)" />
  </g>
  <g
     inkscape:groupmode="layer"
     id="layer2"
     inkscape:label="hours"
     style="display:inline">
    <path
       transform="matrix(0.5,-0.8660254,0.8660254,0.5,20.642305,42.887495)"
       d="m 20,4 a 0.5,1 0 1 1 -1,0 0.5,1 0 1 1 1,0 z"
       sodipodi:ry="1"
       sodipodi:rx="0.5"
       sodipodi:cy="4"
       sodipodi:cx="19.5"
       id="path3830"
       style="fill:#000000;fill-opacity:1;fill-rule:evenodd;stroke:none"
       sodipodi:type="arc" />
    <path
       transform="matrix(0.5,-0.8660254,0.8660254,0.5,-6.02147,28.070508)"
       d="m 5,18.5 a 1,0.5 0 1 1 -2,0 1,0.5 0 1 1 2,0 z"
       sodipodi:ry="0.5"
       sodipodi:rx="1"
       sodipodi:cy="18.5"
       sodipodi:cx="4"
       id="path3832"
       style="fill:#000000;fill-opacity:1;fill-rule:evenodd;stroke:none"
       sodipodi:type="arc" />
    <path
       sodipodi:type="arc"
       style="fill:#000000;fill-opacity:1;fill-rule:evenodd;stroke:none"
       id="path3834"
       sodipodi:cx="4"
       sodipodi:cy="18.5"
       sodipodi:rx="1"
       sodipodi:ry="0.5"
       d="m 5,18.5 a 1,0.5 0 1 1 -2,0 1,0.5 0 1 1 2,0 z"
       transform="matrix(0.5,-0.8660254,0.8660254,0.5,9.97853,0.35769515)" />
    <path
       sodipodi:type="arc"
       style="fill:#000000;fill-opacity:1;fill-rule:evenodd;stroke:none"
       id="path3836"
       sodipodi:cx="19.5"
       sodipodi:cy="4"
       sodipodi:rx="0.5"
       sodipodi:ry="1"
       d="m 20,4 a 0.5,1 0 1 1 -1,0 0.5,1 0 1 1 1,0 z"
       transform="matrix(0.5,-0.8660254,0.8660254,0.5,-7.0705081,26.887495)" />
    <path
       sodipodi:type="arc"
       style="fill:#000000;fill-opacity:1;fill-rule:evenodd;stroke:none"
       id="path3838"
       sodipodi:cx="19.5"
       sodipodi:cy="4"
       sodipodi:rx="0.5"
       sodipodi:ry="1"
       d="m 20,4 a 0.5,1 0 1 1 -1,0 0.5,1 0 1 1 1,0 z"
       transform="matrix(-0.5,-0.8660254,0.8660254,-0.5,40.142305,30.887495)" />
    <path
       sodipodi:type="arc"
       style="fill:#000000;fill-opacity:1;fill-rule:evenodd;stroke:none"
       id="path3840"
       sodipodi:cx="4"
       sodipodi:cy="18.5"
       sodipodi:rx="1"
       sodipodi:ry="0.5"
       d="m 5,18.5 a 1,0.5 0 1 1 -2,0 1,0.5 0 1 1 2,0 z"
       transform="matrix(-0.5,-0.8660254,0.8660254,-0.5,13.97853,46.570508)" />
    <path
       transform="matrix(-0.5,-0.8660254,0.8660254,-0.5,-2.0214699,18.857695)"
       d="m 5,18.5 a 1,0.5 0 1 1 -2,0 1,0.5 0 1 1 2,0 z"
       sodipodi:ry="0.5"
       sodipodi:rx="1"
       sodipodi:cy="18.5"
       sodipodi:cx="4"
       id="path3842"
       style="fill:#000000;fill-opacity:1;fill-rule:evenodd;stroke:none"
       sodipodi:type="arc" />
    <path
       transform="matrix(-0.5,-0.8660254,0.8660254,-0.5,12.429492,46.887495)"
       d="m 20,4 a 0.5,1 0 1 1 -1,0 0.5,1 0 1 1 1,0 z"
       sodipodi:ry="1"
       sodipodi:rx="0.5"
       sodipodi:cy="4"
       sodipodi:cx="19.5"
       id="path3844"
       style="fill:#000000;fill-opacity:1;fill-rule:evenodd;stroke:none"
       sodipodi:type="arc" />
  </g>
  <g
     inkscape:groupmode="layer"
     id="layer5"
     inkscape:label="shine"
     style="display:inline">
    <path
       sodipodi:type="arc"
       style="fill:url(#radialGradient4091);fill-opacity:1;fill-rule:evenodd;stroke:none"
       id="path4081"
       sodipodi:cx="29"
       sodipodi:cy="11"
       sodipodi:rx="7"
       sodipodi:ry="8"
       d="m 36,11 a 7,8 0 1 1 -14,0 7,8 0 1 1 14,0 z"
       transform="matrix(1.3214286,0,0,1.29375,-9.8214286,-2.73125)" />
    <path
       style="font-size:medium;font-style:normal;font-variant:normal;font-weight:normal;font-stretch:normal;text-indent:0;text-align:start;text-decoration:none;line-height:normal;letter-spacing:normal;word-spacing:normal;text-transform:none;direction:ltr;block-progression:tb;writing-mode:lr-tb;text-anchor:start;baseline-shift:baseline;color:#000000;fill:#ffff3e;fill-opacity:0.87064670000000000;fill-rule:nonzero;stroke:none;stroke-width:1;stroke-miterlimit:4;stroke-opacity:1;stroke-dasharray:none;marker:none;visibility:visible;display:inline;overflow:visible;enable-background:accumulate;font-family:Sans;-inkscape-font-specification:Sans"
       d="m 28.5,0.5 -1,9 -1,-1 0,1 -1,0 1,1 -9,1 9,1 -1,1 1,0 0,1 1,-1 1,9 1,-9 1,1 0,-1 1,0 -1,-1 9,-1 -9,-1 1,-1 -1,0 0,-1 -1,1 -1,-9 z"
       id="path4003-3"
       inkscape:connector-curvature="0" />
    <path
       style="font-size:medium;font-style:normal;font-variant:normal;font-weight:normal;font-stretch:normal;text-indent:0;text-align:start;text-decoration:none;line-height:normal;letter-spacing:normal;word-spacing:normal;text-transform:none;direction:ltr;block-progression:tb;writing-mode:lr-tb;text-anchor:start;baseline-shift:baseline;color:#000000;fill:#ffffff;fill-opacity:1;fill-rule:nonzero;stroke:none;stroke-width:2;marker:none;visibility:visible;display:inline;overflow:visible;enable-background:accumulate;font-family:Sans;-inkscape-font-specification:Sans"
       d="m 28.5,9.6875 c -0.08747,0.458402 -0.5334,0.820723 -1,0.8125 0.0082,0.4666 -0.354098,0.912533 -0.8125,1 0.458402,0.08747 0.820723,0.5334 0.8125,1 0.4666,-0.0082 0.912533,0.354098 1,0.8125 0.08747,-0.458402 0.5334,-0.820723 1,-0.8125 -0.0082,-0.4666 0.354098,-0.912533 0.8125,-1 -0.458402,-0.08747 -0.820723,-0.5334 -0.8125,-1 -0.4666,0.0082 -0.912533,-0.354098 -1,-0.8125 z"
       id="path4003"
       inkscape:connector-curvature="0"
       sodipodi:nodetypes="ccccccccc" />
  </g>
  <g
     style="display:none"
     inkscape:label="shine copy"
     id="g4072"
     inkscape:groupmode="layer">
    <path
       sodipodi:nodetypes="ccccccccc"
       inkscape:connector-curvature="0"
       id="path4074"
       d="m 27,11.1875 c -0.08747,0.458402 -0.5334,0.820723 -1,0.8125 0.0082,0.4666 -0.354098,0.912533 -0.8125,1 0.458402,0.08747 0.820723,0.5334 0.8125,1 0.4666,-0.0082 0.912533,0.354098 1,0.8125 C 27.08747,14.354098 27.5334,13.991777 28,14 27.9918,13.5334 28.354098,13.087467 28.8125,13 28.354098,12.91253 27.991777,12.4666 28,12 27.5334,12.0082 27.087467,11.645902 27,11.1875 z"
       style="font-size:medium;font-style:normal;font-variant:normal;font-weight:normal;font-stretch:normal;text-indent:0;text-align:start;text-decoration:none;line-height:normal;letter-spacing:normal;word-spacing:normal;text-transform:none;direction:ltr;block-progression:tb;writing-mode:lr-tb;text-anchor:start;baseline-shift:baseline;color:#000000;fill:#ffffff;fill-opacity:1;fill-rule:nonzero;stroke:none;stroke-width:2;marker:none;visibility:visible;display:inline;overflow:visible;enable-background:accumulate;font-family:Sans;-inkscape-font-specification:Sans" />
    <path
       sodipodi:nodetypes="cccccccsccccccsccccccsccccccc"
       inkscape:connector-curvature="0"
       id="path4076"
       d="M 26.875,0.99999995 C 26.43338,1.0525185 26.052519,1.4333796 26,1.875 l -0.78125,7.15625 -0.03125,0 C 24.615837,8.9221437 24.007925,9.4180726 24,10 c -0.594738,0.0043 -1.098795,0.638388 -0.96875,1.21875 L 15.875,12 c -0.518885,0.0073 -0.985957,0.481063 -0.985957,1 0,0.518937 0.467072,0.992662 0.985957,1 l 7.15625,0.78125 c -1.63e-4,0.01042 -1.63e-4,0.02083 0,0.03125 C 22.922144,15.384163 23.418073,15.992075 24,16 c 0.0043,0.594738 0.638388,1.098795 1.21875,0.96875 L 26,24.125 c 0.0073,0.518885 0.481063,0.985957 1,0.985957 0.518937,0 0.992662,-0.467072 1,-0.985957 l 0.78125,-7.15625 0.03125,0 C 29.384163,17.077856 29.992075,16.581927 30,16 c 0.594738,-0.0043 1.098795,-0.638388 0.96875,-1.21875 L 38.125,14 c 0.518885,-0.0073 0.985957,-0.481063 0.985957,-1 0,-0.518937 -0.467072,-0.992662 -0.985957,-1 l -7.15625,-0.78125 0,-0.03125 C 31.077856,10.615837 30.581927,10.007925 30,10 29.995748,9.4052619 29.361612,8.901205 28.78125,9.03125 L 28,1.875 C 27.938459,1.3498007 27.399188,0.93036714 26.875,0.99999995 z"
       style="font-size:medium;font-style:normal;font-variant:normal;font-weight:normal;font-stretch:normal;text-indent:0;text-align:start;text-decoration:none;line-height:normal;letter-spacing:normal;word-spacing:normal;text-transform:none;direction:ltr;block-progression:tb;writing-mode:lr-tb;text-anchor:start;baseline-shift:baseline;color:#000000;fill:#ffffff;fill-opacity:0.8706467;fill-rule:nonzero;stroke:none;stroke-width:2;marker:none;visibility:visible;display:inline;overflow:visible;enable-background:accumulate;font-family:Sans;-inkscape-font-specification:Sans" />
    <path
       sodipodi:nodetypes="cccccccsccccccsccccccscccccccccccccccccccccccccccccccc"
       inkscape:connector-curvature="0"
       id="path4078"
       d="M 26.875,1 C 26.43338,1.0525186 26.052519,1.4333796 26,1.875 l -0.78125,7.15625 -0.03125,0 C 24.615837,8.9221437 24.007925,9.4180726 24,10 c -0.594738,0.0043 -1.098795,0.638388 -0.96875,1.21875 L 15.875,12 c -0.518885,0.0073 -0.985957,0.481063 -0.985957,1 0,0.518937 0.467072,0.992662 0.985957,1 l 7.15625,0.78125 c -1.63e-4,0.01042 -1.63e-4,0.02083 0,0.03125 C 22.922144,15.384163 23.418073,15.992075 24,16 c 0.0043,0.594738 0.638388,1.098795 1.21875,0.96875 L 26,24.125 c 0.0073,0.518885 0.481063,0.985957 1,0.985957 0.518937,0 0.992662,-0.467072 1,-0.985957 l 0.78125,-7.15625 0.03125,0 C 29.384163,17.077856 29.992075,16.581927 30,16 c 0.594738,-0.0043 1.098795,-0.638388 0.96875,-1.21875 L 38.125,14 c 0.518885,-0.0073 0.985957,-0.481063 0.985957,-1 0,-0.518937 -0.467072,-0.992662 -0.985957,-1 l -7.15625,-0.78125 0,-0.03125 C 31.077856,10.615838 30.581927,10.007925 30,10 29.995748,9.4052619 29.361612,8.901205 28.78125,9.03125 L 28,1.875 C 27.938459,1.3498007 27.399188,0.9303672 26.875,1 z M 27,2 l 1,9 1,-1 0,1 1,0 -1,1 9,1 -9,1 1,1 -1,0 0,1 -1,-1 -1,9 -1,-9 -1,1 0,-1 -1,0 1,-1 -9,-1 9,-1 -1,-1 1,0 0,-1 1,1 z"
       style="font-size:medium;font-style:normal;font-variant:normal;font-weight:normal;font-stretch:normal;text-indent:0;text-align:start;text-decoration:none;line-height:normal;letter-spacing:normal;word-spacing:normal;text-transform:none;direction:ltr;block-progression:tb;writing-mode:lr-tb;text-anchor:start;baseline-shift:baseline;color:#000000;fill:#ffff00;fill-opacity:0.58706468;fill-rule:nonzero;stroke:none;stroke-width:2;marker:none;visibility:visible;display:inline;overflow:visible;enable-background:accumulate;font-family:Sans;-inkscape-font-specification:Sans" />
  </g>
</svg>
