<?xml version="1.0" encoding="UTF-8" standalone="no"?>
<!-- Created with Inkscape (http://www.inkscape.org/) -->

<svg
   xmlns:dc="http://purl.org/dc/elements/1.1/"
   xmlns:cc="http://creativecommons.org/ns#"
   xmlns:rdf="http://www.w3.org/1999/02/22-rdf-syntax-ns#"
   xmlns:svg="http://www.w3.org/2000/svg"
   xmlns="http://www.w3.org/2000/svg"
   xmlns:xlink="http://www.w3.org/1999/xlink"
   xmlns:sodipodi="http://sodipodi.sourceforge.net/DTD/sodipodi-0.dtd"
   xmlns:inkscape="http://www.inkscape.org/namespaces/inkscape"
   width="40"
   height="40"
   id="svg2"
   version="1.1"
   inkscape:version="0.48.4 r9939"
   sodipodi:docname="tasknow.svg">
  <defs
     id="defs4">
    <linearGradient
       id="linearGradient4053">
      <stop
         style="stop-color:#007a05;stop-opacity:1;"
         offset="0"
         id="stop4055" />
      <stop
         style="stop-color:#00e005;stop-opacity:1;"
         offset="1"
         id="stop4057" />
    </linearGradient>
    <linearGradient
       id="linearGradient3977">
      <stop
         id="stop3979"
         offset="0"
         style="stop-color:#1a2137;stop-opacity:1;" />
      <stop
         id="stop3981"
         offset="1"
         style="stop-color:#475799;stop-opacity:1;" />
    </linearGradient>
    <linearGradient
       id="linearGradient4096">
      <stop
         id="stop4098"
         offset="0"
         style="stop-color:#ffff77;stop-opacity:1;" />
      <stop
         style="stop-color:#ffff77;stop-opacity:0.49803922;"
         offset="0"
         id="stop4102" />
      <stop
         id="stop4100"
         offset="1"
         style="stop-color:#ffff77;stop-opacity:0;" />
    </linearGradient>
    <linearGradient
       id="linearGradient3957">
      <stop
         style="stop-color:#ff3d24;stop-opacity:1;"
         offset="0"
         id="stop3959" />
      <stop
         style="stop-color:#ff0000;stop-opacity:1;"
         offset="1"
         id="stop3961" />
    </linearGradient>
    <linearGradient
       id="linearGradient3761">
      <stop
         style="stop-color:#ffffff;stop-opacity:1;"
         offset="0"
         id="stop3763" />
      <stop
         style="stop-color:#c9d2ff;stop-opacity:1;"
         offset="1"
         id="stop3765" />
    </linearGradient>
    <linearGradient
       inkscape:collect="always"
       xlink:href="#linearGradient3761"
       id="linearGradient3876"
       x1="16"
       y1="15"
       x2="30"
       y2="31"
       gradientUnits="userSpaceOnUse"
       gradientTransform="translate(2,-8)" />
    <linearGradient
       inkscape:collect="always"
       xlink:href="#linearGradient4053"
       id="linearGradient4071"
       x1="9"
       y1="30"
       x2="0"
       y2="20"
       gradientUnits="userSpaceOnUse" />
    <linearGradient
       inkscape:collect="always"
       xlink:href="#linearGradient3977"
       id="linearGradient4089"
       x1="27"
       y1="24"
       x2="21"
       y2="9"
       gradientUnits="userSpaceOnUse" />
    <linearGradient
       inkscape:collect="always"
       xlink:href="#linearGradient3957-0"
       id="linearGradient3963"
       x1="30"
       y1="9"
       x2="25"
       y2="20"
       gradientUnits="userSpaceOnUse" />
    <linearGradient
       id="linearGradient3957-0">
      <stop
         style="stop-color:#ff3d24;stop-opacity:1;"
         offset="0"
         id="stop3959-7" />
      <stop
         style="stop-color:#ff0000;stop-opacity:1;"
         offset="1"
         id="stop3961-8" />
    </linearGradient>
    <linearGradient
       inkscape:collect="always"
       xlink:href="#linearGradient3761-9"
       id="linearGradient3767"
       x1="25"
       y1="7"
       x2="15"
       y2="29"
       gradientUnits="userSpaceOnUse" />
    <linearGradient
       id="linearGradient3761-9">
      <stop
         style="stop-color:#ffffff;stop-opacity:1;"
         offset="0"
         id="stop3763-5" />
      <stop
         style="stop-color:#c9d2ff;stop-opacity:1;"
         offset="1"
         id="stop3765-5" />
    </linearGradient>
    <linearGradient
       inkscape:collect="always"
       xlink:href="#linearGradient3761-9"
       id="linearGradient4302"
       gradientUnits="userSpaceOnUse"
       x1="25"
       y1="7"
       x2="15"
       y2="29" />
    <linearGradient
       inkscape:collect="always"
       xlink:href="#linearGradient3957-0"
       id="linearGradient4304"
       gradientUnits="userSpaceOnUse"
       x1="30"
       y1="9"
       x2="25"
       y2="20" />
  </defs>
  <sodipodi:namedview
     id="base"
     pagecolor="#c4c4c4"
     bordercolor="#666666"
     borderopacity="1.0"
     inkscape:pageopacity="1"
     inkscape:pageshadow="2"
     inkscape:zoom="20"
     inkscape:cx="14.151504"
     inkscape:cy="20.874648"
     inkscape:document-units="px"
     inkscape:current-layer="layer4"
     showgrid="true"
     inkscape:window-width="1920"
     inkscape:window-height="1028"
     inkscape:window-x="0"
     inkscape:window-y="0"
     inkscape:window-maximized="1">
    <inkscape:grid
       type="xygrid"
       id="grid2985"
       empspacing="5"
       visible="true"
       enabled="true"
       snapvisiblegridlinesonly="true" />
  </sodipodi:namedview>
  <metadata
     id="metadata7">
    <rdf:RDF>
      <cc:Work
         rdf:about="">
        <dc:format>image/svg+xml</dc:format>
        <dc:type
           rdf:resource="http://purl.org/dc/dcmitype/StillImage" />
        <dc:title></dc:title>
      </cc:Work>
    </rdf:RDF>
  </metadata>
  <g
     inkscape:groupmode="layer"
     id="layer4"
     inkscape:label="clock">
    <path
       sodipodi:type="arc"
       style="fill:#000000;fill-opacity:1;fill-rule:evenodd;stroke:none;display:inline"
       id="path2987"
       sodipodi:cx="20"
       sodipodi:cy="20"
       sodipodi:rx="20"
       sodipodi:ry="20"
       d="M 40,20 A 20,20 0 1 1 0,20 20,20 0 1 1 40,20 z" />
    <path
       sodipodi:type="arc"
       style="fill:#ffffff;fill-opacity:1;fill-rule:evenodd;stroke:none;display:inline"
       id="path3757"
       sodipodi:cx="20"
       sodipodi:cy="20"
       sodipodi:rx="19"
       sodipodi:ry="19"
       d="M 39,20 A 19,19 0 1 1 1,20 19,19 0 1 1 39,20 z" />
    <path
       sodipodi:type="arc"
       style="fill:url(#linearGradient4302);fill-opacity:1;fill-rule:evenodd;stroke:none;display:inline"
       id="path3759"
       sodipodi:cx="20"
       sodipodi:cy="20"
       sodipodi:rx="18"
       sodipodi:ry="18"
       d="M 38,20 A 18,18 0 1 1 2,20 18,18 0 1 1 38,20 z" />
    <rect
       style="fill:#000000;fill-opacity:1;fill-rule:evenodd;stroke:none;display:inline"
       id="rect3791"
       width="3"
       height="1"
       x="2"
       y="19.499983" />
    <path
       sodipodi:type="arc"
       style="fill:url(#linearGradient4304);fill-opacity:1;fill-rule:evenodd;stroke:none;display:inline"
       id="path3947"
       sodipodi:cx="20"
       sodipodi:cy="20"
       sodipodi:rx="18"
       sodipodi:ry="18"
       d="M 20.000107,2 A 18,18 0 0 1 35.535273,29.091495 L 20,20 z"
       sodipodi:start="4.7123949"
       sodipodi:end="6.8126635" />
    <rect
       style="fill:#000000;fill-opacity:1;fill-rule:evenodd;stroke:none;display:inline"
       id="rect3795"
       width="3"
       height="1"
       x="35"
       y="19.499983" />
    <rect
       style="fill:#000000;fill-opacity:1;fill-rule:evenodd;stroke:none;display:inline"
       id="rect3797"
       width="1"
       height="3"
       x="19.5"
       y="34.999981" />
    <path
       sodipodi:type="arc"
       style="fill:#000000;fill-opacity:1;fill-rule:evenodd;stroke:none;display:inline"
       id="path3945"
       sodipodi:cx="20"
       sodipodi:cy="20"
       sodipodi:rx="1"
       sodipodi:ry="1"
       d="m 21,20 a 1,1 0 1 1 -2,0 1,1 0 1 1 2,0 z" />
    <path
       sodipodi:nodetypes="cccccc"
       inkscape:connector-curvature="0"
       id="path3846"
       d="m 20,2 0.5,1 0,17 -1,0 0,-17 z"
       style="fill:#000000;fill-opacity:1;stroke:none;display:inline" />
    <path
       sodipodi:nodetypes="cccccc"
       inkscape:connector-curvature="0"
       id="path3849"
       d="m 31.033166,26.283495 -1.116023,-0.06699 -10.392308,-6.000001 0.500003,-0.866022 10.392305,6.000001 z"
       style="fill:#000000;fill-opacity:1;stroke:none;display:inline" />
    <path
       transform="matrix(0.5,-0.8660254,0.8660254,0.5,20.642305,42.887495)"
       d="m 20,4 a 0.5,1 0 1 1 -1,0 0.5,1 0 1 1 1,0 z"
       sodipodi:ry="1"
       sodipodi:rx="0.5"
       sodipodi:cy="4"
       sodipodi:cx="19.5"
       id="path3830"
       style="fill:#000000;fill-opacity:1;fill-rule:evenodd;stroke:none;display:inline"
       sodipodi:type="arc" />
    <path
       transform="matrix(0.5,-0.8660254,0.8660254,0.5,-6.02147,28.070508)"
       d="m 5,18.5 a 1,0.5 0 1 1 -2,0 1,0.5 0 1 1 2,0 z"
       sodipodi:ry="0.5"
       sodipodi:rx="1"
       sodipodi:cy="18.5"
       sodipodi:cx="4"
       id="path3832"
       style="fill:#000000;fill-opacity:1;fill-rule:evenodd;stroke:none;display:inline"
       sodipodi:type="arc" />
    <path
       sodipodi:type="arc"
       style="fill:#000000;fill-opacity:1;fill-rule:evenodd;stroke:none;display:inline"
       id="path3834"
       sodipodi:cx="4"
       sodipodi:cy="18.5"
       sodipodi:rx="1"
       sodipodi:ry="0.5"
       d="m 5,18.5 a 1,0.5 0 1 1 -2,0 1,0.5 0 1 1 2,0 z"
       transform="matrix(0.5,-0.8660254,0.8660254,0.5,9.97853,0.35769515)" />
    <path
       sodipodi:type="arc"
       style="fill:#000000;fill-opacity:1;fill-rule:evenodd;stroke:none;display:inline"
       id="path3836"
       sodipodi:cx="19.5"
       sodipodi:cy="4"
       sodipodi:rx="0.5"
       sodipodi:ry="1"
       d="m 20,4 a 0.5,1 0 1 1 -1,0 0.5,1 0 1 1 1,0 z"
       transform="matrix(0.5,-0.8660254,0.8660254,0.5,-7.0705081,26.887495)" />
    <path
       sodipodi:type="arc"
       style="fill:#000000;fill-opacity:1;fill-rule:evenodd;stroke:none;display:inline"
       id="path3838"
       sodipodi:cx="19.5"
       sodipodi:cy="4"
       sodipodi:rx="0.5"
       sodipodi:ry="1"
       d="m 20,4 a 0.5,1 0 1 1 -1,0 0.5,1 0 1 1 1,0 z"
       transform="matrix(-0.5,-0.8660254,0.8660254,-0.5,40.142305,30.887495)" />
    <path
       sodipodi:type="arc"
       style="fill:#000000;fill-opacity:1;fill-rule:evenodd;stroke:none;display:inline"
       id="path3840"
       sodipodi:cx="4"
       sodipodi:cy="18.5"
       sodipodi:rx="1"
       sodipodi:ry="0.5"
       d="m 5,18.5 a 1,0.5 0 1 1 -2,0 1,0.5 0 1 1 2,0 z"
       transform="matrix(-0.5,-0.8660254,0.8660254,-0.5,13.97853,46.570508)" />
    <path
       transform="matrix(-0.5,-0.8660254,0.8660254,-0.5,-2.0214699,18.857695)"
       d="m 5,18.5 a 1,0.5 0 1 1 -2,0 1,0.5 0 1 1 2,0 z"
       sodipodi:ry="0.5"
       sodipodi:rx="1"
       sodipodi:cy="18.5"
       sodipodi:cx="4"
       id="path3842"
       style="fill:#000000;fill-opacity:1;fill-rule:evenodd;stroke:none;display:inline"
       sodipodi:type="arc" />
    <path
       transform="matrix(-0.5,-0.8660254,0.8660254,-0.5,12.429492,46.887495)"
       d="m 20,4 a 0.5,1 0 1 1 -1,0 0.5,1 0 1 1 1,0 z"
       sodipodi:ry="1"
       sodipodi:rx="0.5"
       sodipodi:cy="4"
       sodipodi:cx="19.5"
       id="path3844"
       style="fill:#000000;fill-opacity:1;fill-rule:evenodd;stroke:none;display:inline"
       sodipodi:type="arc" />
  </g>
  <g
     inkscape:groupmode="layer"
     id="layer3"
     inkscape:label="play">
    <path
       style="fill:#00e005;fill-opacity:1;stroke:none"
       d="m 1.5,12.5 13,13 -13,13 z"
       id="path4032"
       inkscape:connector-curvature="0"
       sodipodi:nodetypes="cccc" />
    <path
       style="font-size:medium;font-style:normal;font-variant:normal;font-weight:normal;font-stretch:normal;text-indent:0;text-align:start;text-decoration:none;line-height:normal;letter-spacing:normal;word-spacing:normal;text-transform:none;direction:ltr;block-progression:tb;writing-mode:lr-tb;text-anchor:start;baseline-shift:baseline;color:#000000;fill:url(#linearGradient4071);fill-opacity:1;stroke:none;stroke-width:3;marker:none;visibility:visible;display:inline;overflow:visible;enable-background:accumulate;font-family:Sans;-inkscape-font-specification:Sans"
       d="M 3,16.125 12.375,25.5 3,34.875 z"
       id="path4059"
       inkscape:connector-curvature="0"
       sodipodi:nodetypes="cccc" />
    <path
       style="font-size:medium;font-style:normal;font-variant:normal;font-weight:normal;font-stretch:normal;text-indent:0;text-align:start;text-decoration:none;line-height:normal;letter-spacing:normal;word-spacing:normal;text-transform:none;direction:ltr;block-progression:tb;writing-mode:lr-tb;text-anchor:start;baseline-shift:baseline;color:#000000;fill:#004c01;fill-opacity:1;fill-rule:nonzero;stroke:none;stroke-width:1;marker:none;visibility:visible;display:inline;overflow:visible;enable-background:accumulate;font-family:Sans;-inkscape-font-specification:Sans"
       d="M 1,11.28125 1,12.5 l 0,26 0,1.21875 0.84375,-0.875 13,-13 0.375,-0.34375 -0.375,-0.34375 -13,-13 L 1,11.28125 z M 2,13.6875 13.8125,25.5 2,37.3125 2,13.6875 z"
       id="path4036"
       inkscape:connector-curvature="0" />
  </g>
</svg>
