<?xml version="1.0" encoding="UTF-8" standalone="no"?>
<!-- Created with Inkscape (http://www.inkscape.org/) -->

<svg
   xmlns:dc="http://purl.org/dc/elements/1.1/"
   xmlns:cc="http://creativecommons.org/ns#"
   xmlns:rdf="http://www.w3.org/1999/02/22-rdf-syntax-ns#"
   xmlns:svg="http://www.w3.org/2000/svg"
   xmlns="http://www.w3.org/2000/svg"
   xmlns:xlink="http://www.w3.org/1999/xlink"
   xmlns:sodipodi="http://sodipodi.sourceforge.net/DTD/sodipodi-0.dtd"
   xmlns:inkscape="http://www.inkscape.org/namespaces/inkscape"
   width="40"
   height="40"
   id="svg2"
   version="1.1"
   inkscape:version="0.48.4 r9939"
   sodipodi:docname="stop.svg">
  <defs
     id="defs4">
    <linearGradient
       id="linearGradient4053">
      <stop
         style="stop-color:#007a05;stop-opacity:1;"
         offset="0"
         id="stop4055" />
      <stop
         style="stop-color:#00e005;stop-opacity:1;"
         offset="1"
         id="stop4057" />
    </linearGradient>
    <linearGradient
       id="linearGradient3977">
      <stop
         id="stop3979"
         offset="0"
         style="stop-color:#1a2137;stop-opacity:1;" />
      <stop
         id="stop3981"
         offset="1"
         style="stop-color:#475799;stop-opacity:1;" />
    </linearGradient>
    <linearGradient
       id="linearGradient4096">
      <stop
         id="stop4098"
         offset="0"
         style="stop-color:#ffff77;stop-opacity:1;" />
      <stop
         style="stop-color:#ffff77;stop-opacity:0.49803922;"
         offset="0"
         id="stop4102" />
      <stop
         id="stop4100"
         offset="1"
         style="stop-color:#ffff77;stop-opacity:0;" />
    </linearGradient>
    <linearGradient
       id="linearGradient3957">
      <stop
         style="stop-color:#ff3d24;stop-opacity:1;"
         offset="0"
         id="stop3959" />
      <stop
         style="stop-color:#ff0000;stop-opacity:1;"
         offset="1"
         id="stop3961" />
    </linearGradient>
    <linearGradient
       id="linearGradient3761">
      <stop
         style="stop-color:#ffffff;stop-opacity:1;"
         offset="0"
         id="stop3763" />
      <stop
         style="stop-color:#c9d2ff;stop-opacity:1;"
         offset="1"
         id="stop3765" />
    </linearGradient>
    <linearGradient
       inkscape:collect="always"
       xlink:href="#linearGradient3761"
       id="linearGradient3876"
       x1="16"
       y1="15"
       x2="30"
       y2="31"
       gradientUnits="userSpaceOnUse"
       gradientTransform="translate(-66,-8)" />
    <linearGradient
       inkscape:collect="always"
       xlink:href="#linearGradient3977"
       id="linearGradient4089"
       x1="27"
       y1="24"
       x2="21"
       y2="9"
       gradientUnits="userSpaceOnUse"
       gradientTransform="translate(-68,0)" />
    <linearGradient
       inkscape:collect="always"
       xlink:href="#linearGradient3957-1"
       id="linearGradient3963"
       x1="30"
       y1="9"
       x2="25"
       y2="20"
       gradientUnits="userSpaceOnUse" />
    <linearGradient
       id="linearGradient3957-1">
      <stop
         style="stop-color:#ff3d24;stop-opacity:1;"
         offset="0"
         id="stop3959-1" />
      <stop
         style="stop-color:#ff0000;stop-opacity:1;"
         offset="1"
         id="stop3961-4" />
    </linearGradient>
    <linearGradient
       inkscape:collect="always"
       xlink:href="#linearGradient3761-3"
       id="linearGradient3767"
       x1="25"
       y1="7"
       x2="15"
       y2="29"
       gradientUnits="userSpaceOnUse" />
    <linearGradient
       id="linearGradient3761-3">
      <stop
         style="stop-color:#ffffff;stop-opacity:1;"
         offset="0"
         id="stop3763-3" />
      <stop
         style="stop-color:#c9d2ff;stop-opacity:1;"
         offset="1"
         id="stop3765-8" />
    </linearGradient>
    <linearGradient
       inkscape:collect="always"
       xlink:href="#linearGradient3957"
       id="linearGradient3864"
       x1="29"
       y1="6"
       x2="12"
       y2="34"
       gradientUnits="userSpaceOnUse" />
    <linearGradient
       inkscape:collect="always"
       xlink:href="#linearGradient3761-3"
       id="linearGradient4047"
       gradientUnits="userSpaceOnUse"
       x1="25"
       y1="7"
       x2="15"
       y2="29" />
    <linearGradient
       inkscape:collect="always"
       xlink:href="#linearGradient3957-1"
       id="linearGradient4049"
       gradientUnits="userSpaceOnUse"
       x1="30"
       y1="9"
       x2="25"
       y2="20" />
    <linearGradient
       inkscape:collect="always"
       xlink:href="#linearGradient3761-3"
       id="linearGradient4092"
       gradientUnits="userSpaceOnUse"
       x1="25"
       y1="7"
       x2="15"
       y2="29" />
    <linearGradient
       inkscape:collect="always"
       xlink:href="#linearGradient3957-1"
       id="linearGradient4094"
       gradientUnits="userSpaceOnUse"
       x1="30"
       y1="9"
       x2="25"
       y2="20" />
    <linearGradient
       inkscape:collect="always"
       xlink:href="#linearGradient3761-3"
       id="linearGradient4136"
       gradientUnits="userSpaceOnUse"
       x1="25"
       y1="7"
       x2="15"
       y2="29" />
    <linearGradient
       inkscape:collect="always"
       xlink:href="#linearGradient3957-1"
       id="linearGradient4138"
       gradientUnits="userSpaceOnUse"
       x1="30"
       y1="9"
       x2="25"
       y2="20" />
  </defs>
  <sodipodi:namedview
     id="base"
     pagecolor="#c4c4c4"
     bordercolor="#666666"
     borderopacity="1.0"
     inkscape:pageopacity="1"
     inkscape:pageshadow="2"
     inkscape:zoom="20"
     inkscape:cx="13.275123"
     inkscape:cy="19.416901"
     inkscape:document-units="px"
     inkscape:current-layer="layer4"
     showgrid="true"
     inkscape:window-width="1920"
     inkscape:window-height="1028"
     inkscape:window-x="0"
     inkscape:window-y="0"
     inkscape:window-maximized="1">
    <inkscape:grid
       type="xygrid"
       id="grid2985"
       empspacing="5"
       visible="true"
       enabled="true"
       snapvisiblegridlinesonly="true" />
  </sodipodi:namedview>
  <metadata
     id="metadata7">
    <rdf:RDF>
      <cc:Work
         rdf:about="">
        <dc:format>image/svg+xml</dc:format>
        <dc:type
           rdf:resource="http://purl.org/dc/dcmitype/StillImage" />
        <dc:title></dc:title>
      </cc:Work>
    </rdf:RDF>
  </metadata>
  <g
     inkscape:groupmode="layer"
     id="layer1"
     inkscape:label="Layer1">
    <path
       style="font-size:medium;font-style:normal;font-variant:normal;font-weight:normal;font-stretch:normal;text-indent:0;text-align:start;text-decoration:none;line-height:normal;letter-spacing:normal;word-spacing:normal;text-transform:none;direction:ltr;block-progression:tb;writing-mode:lr-tb;text-anchor:start;baseline-shift:baseline;color:#000000;fill:#000000;fill-opacity:1;fill-rule:evenodd;stroke:none;stroke-width:2;marker:none;visibility:visible;display:inline;overflow:visible;enable-background:accumulate;font-family:Sans;-inkscape-font-specification:Sans"
       d="M -57.09375,6 C -57.585334,6.04633 -58.002129,6.506242 -58,7 l 0,20 c 5.2e-5,0.523584 0.476416,0.999948 1,1 l 24,0 c 0.523584,-5.2e-5 0.999948,-0.476416 1,-1 l 0,-20 c -5.2e-5,-0.523584 -0.476416,-0.999948 -1,-1 l -24,0 c -0.03123,-0.0015 -0.06252,-0.0015 -0.09375,0 z"
       id="rect3040"
       inkscape:connector-curvature="0"
       sodipodi:nodetypes="cccccccccc" />
    <path
       style="font-size:medium;font-style:normal;font-variant:normal;font-weight:normal;font-stretch:normal;text-indent:0;text-align:start;text-decoration:none;line-height:normal;letter-spacing:normal;word-spacing:normal;text-transform:none;direction:ltr;block-progression:tb;writing-mode:lr-tb;text-anchor:start;baseline-shift:baseline;color:#000000;fill:#ffffff;fill-opacity:1;fill-rule:evenodd;stroke:none;stroke-width:2;marker:none;visibility:visible;display:inline;overflow:visible;enable-background:accumulate;font-family:Sans;-inkscape-font-specification:Sans"
       d="M -56.09375,7 C -56.585334,7.04633 -57.002129,7.506242 -57,8 l 0,17 c 5.2e-5,0.523584 0.476416,0.999948 1,1 l 21,0 c 0.523584,-5.2e-5 0.999948,-0.476416 1,-1 l 0,-17 c -5.2e-5,-0.523584 -0.476416,-0.999948 -1,-1 l -21,0 c -0.03123,-0.0015 -0.06252,-0.0015 -0.09375,0 z"
       inkscape:connector-curvature="0"
       sodipodi:nodetypes="cccccccccc"
       id="path21" />
    <path
       style="font-size:medium;font-style:normal;font-variant:normal;font-weight:normal;font-stretch:normal;text-indent:0;text-align:start;text-decoration:none;line-height:normal;letter-spacing:normal;word-spacing:normal;text-transform:none;direction:ltr;block-progression:tb;writing-mode:lr-tb;text-anchor:start;baseline-shift:baseline;color:#000000;fill:url(#linearGradient3876);fill-opacity:1;fill-rule:evenodd;stroke:none;stroke-width:2;marker:none;visibility:visible;display:inline;overflow:visible;enable-background:accumulate;font-family:Sans;-inkscape-font-specification:Sans"
       d="M -55.09375,8 C -55.585334,8.04633 -56.002129,8.506242 -56,9 l 0,15 c 5.2e-5,0.523584 0.476416,0.999948 1,1 l 19,0 c 0.523584,-5.2e-5 0.999948,-0.476416 1,-1 l 0,-15 c -5.2e-5,-0.523584 -0.476416,-0.999948 -1,-1 l -19,0 c -0.03123,-0.0015 -0.06252,-0.0015 -0.09375,0 z"
       id="rect3042"
       inkscape:connector-curvature="0"
       sodipodi:nodetypes="cccccccccc" />
  </g>
  <g
     inkscape:groupmode="layer"
     id="layer2"
     inkscape:label="mark"
     style="display:inline">
    <path
       style="fill:#475799;fill-opacity:1;stroke:none"
       d="M -32,1 C -40.313861,1 -45.207365,13.780345 -45.90625,21.25 -46.195068,16.703043 -50.804509,12 -57,12 l -2,4 c 7,0 10.018,7.319933 10,9 l 7,0 c 0,-7 4,-20 13,-20 l -3,-4 z"
       id="path3878"
       inkscape:connector-curvature="0" />
    <path
       style="font-size:medium;font-style:normal;font-variant:normal;font-weight:normal;font-stretch:normal;text-indent:0;text-align:start;text-decoration:none;line-height:normal;letter-spacing:normal;word-spacing:normal;text-transform:none;direction:ltr;block-progression:tb;writing-mode:lr-tb;text-anchor:start;baseline-shift:baseline;color:#000000;fill:#0c1015;fill-opacity:1;stroke:none;stroke-width:2;marker:none;visibility:visible;display:inline;overflow:visible;enable-background:accumulate;font-family:Sans;-inkscape-font-specification:Sans"
       d="M -32,1 C -40.258183,1 -45.15618,13.604009 -45.90625,21.09375 -46.289062,16.595703 -50.875,12 -57,12 l -2,4 c 7,0 10.018,7.319933 10,9 l 7,0 c 0,-7 4,-20 13,-20 z m -0.4375,1.09375 1.65625,2.21875 C -34.808017,5.078613 -37.817233,8.154409 -39.75,11.90625 -41.791524,15.869208 -42.850324,21.410531 -43,25 l -5,0 c -0.106152,-0.480325 -0.401648,-1.897429 -0.65625,-2.5 -0.42347,-1.002234 -1.058816,-2.148443 -1.9375,-3.25 -1.507217,-1.889513 -3.828587,-3.596335 -6.875,-4.0625 l 1.03125,-2.09375 c 5.379142,0.295478 9.291187,4.439358 9.53125,8.21875 l 2,0.03125 c 0.334204,-3.571959 1.708265,-8.559677 3.96875,-12.53125 2.165886,-3.805366 5.057185,-6.493327 8.5,-6.71875 z"
       id="path3009"
       inkscape:connector-curvature="0"
       sodipodi:nodetypes="ccccccccccsccssccccsc" />
    <path
       style="font-size:medium;font-style:normal;font-variant:normal;font-weight:normal;font-stretch:normal;text-indent:0;text-align:start;text-decoration:none;line-height:normal;letter-spacing:normal;word-spacing:normal;text-transform:none;direction:ltr;block-progression:tb;writing-mode:lr-tb;text-anchor:start;baseline-shift:baseline;color:#000000;fill:url(#linearGradient4089);fill-opacity:1;stroke:none;stroke-width:3;marker:none;visibility:visible;display:inline;overflow:visible;enable-background:accumulate;font-family:Sans;-inkscape-font-specification:Sans"
       d="m -32.65625,2.625 1.03125,1.34375 c -3.833881,1.0391157 -6.740049,4.1203883 -8.59375,7.71875 C -42.218361,15.569098 -43.785864,21.403 -44,25 l -3,0 c -0.115709,-0.388852 -0.994709,-2.231218 -1.1875,-2.6875 -0.440314,-1.042099 -1.088786,-2.232663 -2,-3.375 -1.452703,-1.821171 -3.670978,-3.495758 -6.53125,-4.125 l 0.5625,-1.15625 C -51.191448,14.091433 -47.216098,17.597894 -47,21 l 2,0 c 0.326585,-3.490525 2.284258,-8.044538 4.5,-11.9375 2.066657,-3.6310251 4.745413,-6.1081452 7.84375,-6.4375 z"
       id="path4075"
       inkscape:connector-curvature="0"
       sodipodi:nodetypes="ccsccssccccsc" />
  </g>
  <g
     inkscape:groupmode="layer"
     id="layer3"
     inkscape:label="stop">
    <path
       style="opacity:1;fill:#80000f;fill-opacity:0.94117647;fill-rule:evenodd;stroke:none"
       d="M 27.870059,38.999999 12.129943,39 1.0000005,27.870059 1,12.129943 12.129941,1.0000005 27.870057,1 38.999999,12.129941 39,27.870057 z"
       id="path3072"
       inkscape:connector-curvature="0" />
    <path
       style="font-size:medium;font-style:normal;font-variant:normal;font-weight:normal;font-stretch:normal;text-indent:0;text-align:start;text-decoration:none;line-height:normal;letter-spacing:normal;word-spacing:normal;text-transform:none;direction:ltr;block-progression:tb;writing-mode:lr-tb;text-anchor:start;baseline-shift:baseline;color:#000000;fill:#ff0000;fill-opacity:1;fill-rule:evenodd;stroke:none;stroke-width:2;marker:none;visibility:visible;display:inline;overflow:visible;enable-background:accumulate;font-family:Sans;-inkscape-font-specification:Sans"
       d="M 12.5625,2 27.4375,2 38,12.5625 38,27.4375 27.4375,38 12.5625,38 2,27.4375 2,12.5625 z"
       id="path3845"
       inkscape:connector-curvature="0"
       sodipodi:nodetypes="ccccccccc" />
    <path
       style="font-size:medium;font-style:normal;font-variant:normal;font-weight:normal;font-stretch:normal;text-indent:0;text-align:start;text-decoration:none;line-height:normal;letter-spacing:normal;word-spacing:normal;text-transform:none;direction:ltr;block-progression:tb;writing-mode:lr-tb;text-anchor:start;baseline-shift:baseline;color:#000000;fill:url(#linearGradient3864);fill-opacity:1;fill-rule:evenodd;stroke:none;stroke-width:4;marker:none;visibility:visible;display:inline;overflow:visible;enable-background:accumulate;font-family:Sans;-inkscape-font-specification:Sans"
       d="M 12.9375,3 27.0625,3 37,12.9375 37,27.0625 27.0625,37 12.9375,37 3,27.0625 3,12.9375 z"
       id="path3847"
       inkscape:connector-curvature="0"
       sodipodi:nodetypes="ccccccccc" />
  </g>
  <g
     inkscape:groupmode="layer"
     id="layer4"
     inkscape:label="clock">
    <path
       sodipodi:type="arc"
       style="display:inline;fill:#000000;fill-opacity:1;fill-rule:evenodd;stroke:none"
       id="path2987"
       sodipodi:cx="20"
       sodipodi:cy="20"
       sodipodi:rx="20"
       sodipodi:ry="20"
       d="M 40,20 A 20,20 0 1 1 0,20 20,20 0 1 1 40,20 z"
       transform="translate(60,0)" />
    <path
       sodipodi:type="arc"
       style="display:inline;fill:#ffffff;fill-opacity:1;fill-rule:evenodd;stroke:none"
       id="path3757"
       sodipodi:cx="20"
       sodipodi:cy="20"
       sodipodi:rx="19"
       sodipodi:ry="19"
       d="M 39,20 A 19,19 0 1 1 1,20 19,19 0 1 1 39,20 z"
       transform="translate(60,0)" />
    <path
       sodipodi:type="arc"
       style="display:inline;fill:url(#linearGradient3767);fill-opacity:1;fill-rule:evenodd;stroke:none"
       id="path3759"
       sodipodi:cx="20"
       sodipodi:cy="20"
       sodipodi:rx="18"
       sodipodi:ry="18"
       d="M 38,20 A 18,18 0 1 1 2,20 18,18 0 1 1 38,20 z"
       transform="translate(60,0)" />
    <rect
       style="display:inline;fill:#000000;fill-opacity:1;fill-rule:evenodd;stroke:none"
       id="rect3791"
       width="3"
       height="1"
       x="62"
       y="19.499983" />
    <path
       sodipodi:type="arc"
       style="display:inline;fill:url(#linearGradient3963);fill-opacity:1;fill-rule:evenodd;stroke:none"
       id="path3947"
       sodipodi:cx="20"
       sodipodi:cy="20"
       sodipodi:rx="18"
       sodipodi:ry="18"
       d="M 20.000107,2 A 18,18 0 0 1 35.535273,29.091495 L 20,20 z"
       sodipodi:start="4.7123949"
       sodipodi:end="6.8126635"
       transform="translate(60,0)" />
    <rect
       style="display:inline;fill:#000000;fill-opacity:1;fill-rule:evenodd;stroke:none"
       id="rect3795"
       width="3"
       height="1"
       x="95"
       y="19.499983" />
    <rect
       style="display:inline;fill:#000000;fill-opacity:1;fill-rule:evenodd;stroke:none"
       id="rect3797"
       width="1"
       height="3"
       x="79.5"
       y="34.999981" />
    <path
       sodipodi:type="arc"
       style="display:inline;fill:#000000;fill-opacity:1;fill-rule:evenodd;stroke:none"
       id="path3945"
       sodipodi:cx="20"
       sodipodi:cy="20"
       sodipodi:rx="1"
       sodipodi:ry="1"
       d="m 21,20 a 1,1 0 1 1 -2,0 1,1 0 1 1 2,0 z"
       transform="translate(60,0)" />
    <path
       sodipodi:nodetypes="cccccc"
       inkscape:connector-curvature="0"
       id="path3846"
       d="m 80,2 0.5,1 0,17 -1,0 0,-17 z"
       style="display:inline;fill:#000000;fill-opacity:1;stroke:none" />
    <path
       sodipodi:nodetypes="cccccc"
       inkscape:connector-curvature="0"
       id="path3849"
       d="m 91.033166,26.283495 -1.116023,-0.06699 -10.392308,-6.000001 0.500003,-0.866022 10.392305,6.000001 z"
       style="display:inline;fill:#000000;fill-opacity:1;stroke:none" />
    <path
       transform="matrix(0.5,-0.8660254,0.8660254,0.5,80.642305,42.887495)"
       d="m 20,4 a 0.5,1 0 1 1 -1,0 0.5,1 0 1 1 1,0 z"
       sodipodi:ry="1"
       sodipodi:rx="0.5"
       sodipodi:cy="4"
       sodipodi:cx="19.5"
       id="path3830"
       style="display:inline;fill:#000000;fill-opacity:1;fill-rule:evenodd;stroke:none"
       sodipodi:type="arc" />
    <path
       transform="matrix(0.5,-0.8660254,0.8660254,0.5,53.97853,28.070508)"
       d="m 5,18.5 a 1,0.5 0 1 1 -2,0 1,0.5 0 1 1 2,0 z"
       sodipodi:ry="0.5"
       sodipodi:rx="1"
       sodipodi:cy="18.5"
       sodipodi:cx="4"
       id="path3832"
       style="display:inline;fill:#000000;fill-opacity:1;fill-rule:evenodd;stroke:none"
       sodipodi:type="arc" />
    <path
       sodipodi:type="arc"
       style="display:inline;fill:#000000;fill-opacity:1;fill-rule:evenodd;stroke:none"
       id="path3834"
       sodipodi:cx="4"
       sodipodi:cy="18.5"
       sodipodi:rx="1"
       sodipodi:ry="0.5"
       d="m 5,18.5 a 1,0.5 0 1 1 -2,0 1,0.5 0 1 1 2,0 z"
       transform="matrix(0.5,-0.8660254,0.8660254,0.5,69.97853,0.35769515)" />
    <path
       sodipodi:type="arc"
       style="display:inline;fill:#000000;fill-opacity:1;fill-rule:evenodd;stroke:none"
       id="path3836"
       sodipodi:cx="19.5"
       sodipodi:cy="4"
       sodipodi:rx="0.5"
       sodipodi:ry="1"
       d="m 20,4 a 0.5,1 0 1 1 -1,0 0.5,1 0 1 1 1,0 z"
       transform="matrix(0.5,-0.8660254,0.8660254,0.5,52.929492,26.887495)" />
    <path
       sodipodi:type="arc"
       style="display:inline;fill:#000000;fill-opacity:1;fill-rule:evenodd;stroke:none"
       id="path3838"
       sodipodi:cx="19.5"
       sodipodi:cy="4"
       sodipodi:rx="0.5"
       sodipodi:ry="1"
       d="m 20,4 a 0.5,1 0 1 1 -1,0 0.5,1 0 1 1 1,0 z"
       transform="matrix(-0.5,-0.8660254,0.8660254,-0.5,100.1423,30.887495)" />
    <path
       sodipodi:type="arc"
       style="display:inline;fill:#000000;fill-opacity:1;fill-rule:evenodd;stroke:none"
       id="path3840"
       sodipodi:cx="4"
       sodipodi:cy="18.5"
       sodipodi:rx="1"
       sodipodi:ry="0.5"
       d="m 5,18.5 a 1,0.5 0 1 1 -2,0 1,0.5 0 1 1 2,0 z"
       transform="matrix(-0.5,-0.8660254,0.8660254,-0.5,73.97853,46.570508)" />
    <path
       transform="matrix(-0.5,-0.8660254,0.8660254,-0.5,57.97853,18.857695)"
       d="m 5,18.5 a 1,0.5 0 1 1 -2,0 1,0.5 0 1 1 2,0 z"
       sodipodi:ry="0.5"
       sodipodi:rx="1"
       sodipodi:cy="18.5"
       sodipodi:cx="4"
       id="path3842"
       style="display:inline;fill:#000000;fill-opacity:1;fill-rule:evenodd;stroke:none"
       sodipodi:type="arc" />
    <path
       transform="matrix(-0.5,-0.8660254,0.8660254,-0.5,72.429492,46.887495)"
       d="m 20,4 a 0.5,1 0 1 1 -1,0 0.5,1 0 1 1 1,0 z"
       sodipodi:ry="1"
       sodipodi:rx="0.5"
       sodipodi:cy="4"
       sodipodi:cx="19.5"
       id="path3844"
       style="display:inline;fill:#000000;fill-opacity:1;fill-rule:evenodd;stroke:none"
       sodipodi:type="arc" />
    <g
       id="g4026"
       transform="translate(-107.5,-4.5)">
      <path
         sodipodi:type="arc"
         style="fill:#000000;fill-opacity:1;fill-rule:evenodd;stroke:none;display:inline"
         id="path3976"
         sodipodi:cx="20"
         sodipodi:cy="20"
         sodipodi:rx="20"
         sodipodi:ry="20"
         d="M 40,20 C 40,31.045695 31.045695,40 20,40 8.954305,40 0,31.045695 0,20 0,8.954305 8.954305,0 20,0 31.045695,0 40,8.954305 40,20 z"
         transform="matrix(0.475,0,0,0.475,112.5,10.5)" />
      <path
         sodipodi:type="arc"
         style="fill:#ffffff;fill-opacity:1;fill-rule:evenodd;stroke:none;display:inline"
         id="path3978"
         sodipodi:cx="20"
         sodipodi:cy="20"
         sodipodi:rx="19"
         sodipodi:ry="19"
         d="M 39,20 C 39,30.49341 30.49341,39 20,39 9.5065898,39 1,30.49341 1,20 1,9.5065898 9.5065898,1 20,1 30.49341,1 39,9.5065898 39,20 z"
         transform="matrix(0.44736842,0,0,0.44736842,113.05263,11.052632)" />
      <g
         transform="matrix(0.41666666,0,0,0.41666666,71.166666,11.666667)"
         id="g4016">
        <path
           transform="translate(102,0)"
           d="M 38,20 C 38,29.941125 29.941125,38 20,38 10.058875,38 2,29.941125 2,20 2,10.058875 10.058875,2 20,2 c 9.941125,0 18,8.058875 18,18 z"
           sodipodi:ry="18"
           sodipodi:rx="18"
           sodipodi:cy="20"
           sodipodi:cx="20"
           id="path3980"
           style="fill:url(#linearGradient4047);fill-opacity:1;fill-rule:evenodd;stroke:none;display:inline"
           sodipodi:type="arc" />
        <path
           transform="translate(102,0)"
           sodipodi:end="6.8126635"
           sodipodi:start="4.7123949"
           d="M 20.000107,2 C 29.941232,2.0000588 38.000059,10.058981 38,20.000107 c -1.9e-5,3.195518 -0.850724,6.333429 -2.464727,9.091388 L 20,20 z"
           sodipodi:ry="18"
           sodipodi:rx="18"
           sodipodi:cy="20"
           sodipodi:cx="20"
           id="path3984"
           style="fill:url(#linearGradient4049);fill-opacity:1;fill-rule:evenodd;stroke:none;display:inline"
           sodipodi:type="arc" />
      </g>
      <rect
         style="fill:#000000;fill-opacity:1;fill-rule:evenodd;stroke:none;display:inline"
         id="rect3982"
         width="1.249999"
         height="0.41666639"
         x="114.50001"
         y="19.791655" />
      <rect
         style="fill:#000000;fill-opacity:1;fill-rule:evenodd;stroke:none;display:inline"
         id="rect3986"
         width="1.249999"
         height="0.41666639"
         x="128.25"
         y="19.791655" />
      <rect
         style="fill:#000000;fill-opacity:1;fill-rule:evenodd;stroke:none;display:inline"
         id="rect3988"
         width="0.41666639"
         height="1.249999"
         x="121.79166"
         y="26.249981" />
      <path
         sodipodi:type="arc"
         style="fill:#000000;fill-opacity:1;fill-rule:evenodd;stroke:none;display:inline"
         id="path3990"
         sodipodi:cx="20"
         sodipodi:cy="20"
         sodipodi:rx="1"
         sodipodi:ry="1"
         d="m 21,20 c 0,0.552285 -0.447715,1 -1,1 -0.552285,0 -1,-0.447715 -1,-1 0,-0.552285 0.447715,-1 1,-1 0.552285,0 1,0.447715 1,1 z"
         transform="matrix(0.5,0,0,0.5,112,10)" />
      <path
         sodipodi:nodetypes="cccccc"
         inkscape:connector-curvature="0"
         id="path3992"
         d="m 122,12.5 0.5,0.416667 0,7.083331 -1,0 0,-7.083331 z"
         style="fill:#000000;fill-opacity:1;stroke:none;display:inline" />
      <path
         sodipodi:nodetypes="cccccc"
         inkscape:connector-curvature="0"
         id="path3994"
         d="m 126.15373,22.399154 -0.57475,0.245462 -3.89712,-2.249986 0.49998,-0.866027 3.89713,2.250006 z"
         style="fill:#000000;fill-opacity:1;stroke:none;display:inline" />
      <path
         transform="matrix(0.20833318,-0.36084365,0.36084365,0.20833318,122.26762,29.536443)"
         d="M 20,4 C 20,4.5522847 19.776142,5 19.5,5 19.223858,5 19,4.5522847 19,4 19,3.4477153 19.223858,3 19.5,3 19.776142,3 20,3.4477153 20,4 z"
         sodipodi:ry="1"
         sodipodi:rx="0.5"
         sodipodi:cy="4"
         sodipodi:cx="19.5"
         id="path3996"
         style="fill:#000000;fill-opacity:1;fill-rule:evenodd;stroke:none;display:inline"
         sodipodi:type="arc" />
      <path
         transform="matrix(0.20833318,-0.36084365,0.36084365,0.20833318,111.15773,23.362703)"
         d="M 5,18.5 C 5,18.776142 4.5522847,19 4,19 3.4477153,19 3,18.776142 3,18.5 3,18.223858 3.4477153,18 4,18 c 0.5522847,0 1,0.223858 1,0.5 z"
         sodipodi:ry="0.5"
         sodipodi:rx="1"
         sodipodi:cy="18.5"
         sodipodi:cx="4"
         id="path3998"
         style="fill:#000000;fill-opacity:1;fill-rule:evenodd;stroke:none;display:inline"
         sodipodi:type="arc" />
      <path
         sodipodi:type="arc"
         style="fill:#000000;fill-opacity:1;fill-rule:evenodd;stroke:none;display:inline"
         id="path4000"
         sodipodi:cx="4"
         sodipodi:cy="18.5"
         sodipodi:rx="1"
         sodipodi:ry="0.5"
         d="M 5,18.5 C 5,18.776142 4.5522847,19 4,19 3.4477153,19 3,18.776142 3,18.5 3,18.223858 3.4477153,18 4,18 c 0.5522847,0 1,0.223858 1,0.5 z"
         transform="matrix(0.20833318,-0.36084365,0.36084365,0.20833318,117.82439,11.815707)" />
      <path
         sodipodi:type="arc"
         style="fill:#000000;fill-opacity:1;fill-rule:evenodd;stroke:none;display:inline"
         id="path4002"
         sodipodi:cx="19.5"
         sodipodi:cy="4"
         sodipodi:rx="0.5"
         sodipodi:ry="1"
         d="M 20,4 C 20,4.5522847 19.776142,5 19.5,5 19.223858,5 19,4.5522847 19,4 19,3.4477153 19.223858,3 19.5,3 19.776142,3 20,3.4477153 20,4 z"
         transform="matrix(0.20833318,-0.36084365,0.36084365,0.20833318,110.72063,22.869782)" />
      <path
         sodipodi:type="arc"
         style="fill:#000000;fill-opacity:1;fill-rule:evenodd;stroke:none;display:inline"
         id="path4004"
         sodipodi:cx="19.5"
         sodipodi:cy="4"
         sodipodi:rx="0.5"
         sodipodi:ry="1"
         d="M 20,4 C 20,4.5522847 19.776142,5 19.5,5 19.223858,5 19,4.5522847 19,4 19,3.4477153 19.223858,3 19.5,3 19.776142,3 20,3.4477153 20,4 z"
         transform="matrix(-0.20833318,-0.36084365,0.36084365,-0.20833318,130.39262,24.536448)" />
      <path
         sodipodi:type="arc"
         style="fill:#000000;fill-opacity:1;fill-rule:evenodd;stroke:none;display:inline"
         id="path4006"
         sodipodi:cx="4"
         sodipodi:cy="18.5"
         sodipodi:rx="1"
         sodipodi:ry="0.5"
         d="M 5,18.5 C 5,18.776142 4.5522847,19 4,19 3.4477153,19 3,18.776142 3,18.5 3,18.223858 3.4477153,18 4,18 c 0.5522847,0 1,0.223858 1,0.5 z"
         transform="matrix(-0.20833318,-0.36084365,0.36084365,-0.20833318,119.49106,31.071031)" />
      <path
         transform="matrix(-0.20833318,-0.36084365,0.36084365,-0.20833318,112.8244,19.524034)"
         d="M 5,18.5 C 5,18.776142 4.5522847,19 4,19 3.4477153,19 3,18.776142 3,18.5 3,18.223858 3.4477153,18 4,18 c 0.5522847,0 1,0.223858 1,0.5 z"
         sodipodi:ry="0.5"
         sodipodi:rx="1"
         sodipodi:cy="18.5"
         sodipodi:cx="4"
         id="path4008"
         style="fill:#000000;fill-opacity:1;fill-rule:evenodd;stroke:none;display:inline"
         sodipodi:type="arc" />
      <path
         transform="matrix(-0.20833318,-0.36084365,0.36084365,-0.20833318,118.84562,31.203109)"
         d="M 20,4 C 20,4.5522847 19.776142,5 19.5,5 19.223858,5 19,4.5522847 19,4 19,3.4477153 19.223858,3 19.5,3 19.776142,3 20,3.4477153 20,4 z"
         sodipodi:ry="1"
         sodipodi:rx="0.5"
         sodipodi:cy="4"
         sodipodi:cx="19.5"
         id="path4010"
         style="fill:#000000;fill-opacity:1;fill-rule:evenodd;stroke:none;display:inline"
         sodipodi:type="arc" />
    </g>
    <g
       transform="translate(-97.5,-4.5)"
       id="g4051">
      <path
         transform="matrix(0.475,0,0,0.475,112.5,10.5)"
         d="M 40,20 C 40,31.045695 31.045695,40 20,40 8.954305,40 0,31.045695 0,20 0,8.954305 8.954305,0 20,0 31.045695,0 40,8.954305 40,20 z"
         sodipodi:ry="20"
         sodipodi:rx="20"
         sodipodi:cy="20"
         sodipodi:cx="20"
         id="path4053"
         style="fill:#000000;fill-opacity:1;fill-rule:evenodd;stroke:none;display:inline"
         sodipodi:type="arc" />
      <path
         transform="matrix(0.44736842,0,0,0.44736842,113.05263,11.052632)"
         d="M 39,20 C 39,30.49341 30.49341,39 20,39 9.5065898,39 1,30.49341 1,20 1,9.5065898 9.5065898,1 20,1 30.49341,1 39,9.5065898 39,20 z"
         sodipodi:ry="19"
         sodipodi:rx="19"
         sodipodi:cy="20"
         sodipodi:cx="20"
         id="path4055"
         style="fill:#ffffff;fill-opacity:1;fill-rule:evenodd;stroke:none;display:inline"
         sodipodi:type="arc" />
      <g
         id="g4057"
         transform="matrix(0.41666666,0,0,0.41666666,71.166666,11.666667)">
        <path
           sodipodi:type="arc"
           style="fill:url(#linearGradient4092);fill-opacity:1;fill-rule:evenodd;stroke:none;display:inline"
           id="path4059"
           sodipodi:cx="20"
           sodipodi:cy="20"
           sodipodi:rx="18"
           sodipodi:ry="18"
           d="M 38,20 C 38,29.941125 29.941125,38 20,38 10.058875,38 2,29.941125 2,20 2,10.058875 10.058875,2 20,2 c 9.941125,0 18,8.058875 18,18 z"
           transform="translate(102,0)" />
        <path
           sodipodi:type="arc"
           style="fill:url(#linearGradient4094);fill-opacity:1;fill-rule:evenodd;stroke:none;display:inline"
           id="path4061"
           sodipodi:cx="20"
           sodipodi:cy="20"
           sodipodi:rx="18"
           sodipodi:ry="18"
           d="M 20.000107,2 C 29.941232,2.0000588 38.000059,10.058981 38,20.000107 c -1.9e-5,3.195518 -0.850724,6.333429 -2.464727,9.091388 L 20,20 z"
           sodipodi:start="4.7123949"
           sodipodi:end="6.8126635"
           transform="translate(102,0)" />
      </g>
      <rect
         y="19.791655"
         x="114.50001"
         height="0.41666639"
         width="1.249999"
         id="rect4063"
         style="fill:#000000;fill-opacity:1;fill-rule:evenodd;stroke:none;display:inline" />
      <rect
         y="19.791655"
         x="128.25"
         height="0.41666639"
         width="1.249999"
         id="rect4065"
         style="fill:#000000;fill-opacity:1;fill-rule:evenodd;stroke:none;display:inline" />
      <rect
         y="26.249981"
         x="121.79166"
         height="1.249999"
         width="0.41666639"
         id="rect4067"
         style="fill:#000000;fill-opacity:1;fill-rule:evenodd;stroke:none;display:inline" />
      <path
         transform="matrix(0.5,0,0,0.5,112,10)"
         d="m 21,20 c 0,0.552285 -0.447715,1 -1,1 -0.552285,0 -1,-0.447715 -1,-1 0,-0.552285 0.447715,-1 1,-1 0.552285,0 1,0.447715 1,1 z"
         sodipodi:ry="1"
         sodipodi:rx="1"
         sodipodi:cy="20"
         sodipodi:cx="20"
         id="path4069"
         style="fill:#000000;fill-opacity:1;fill-rule:evenodd;stroke:none;display:inline"
         sodipodi:type="arc" />
      <path
         style="fill:#000000;fill-opacity:1;stroke:none;display:inline"
         d="m 122,12.5 0.5,0.416667 0,7.083331 -1,0 0,-7.083331 z"
         id="path4071"
         inkscape:connector-curvature="0"
         sodipodi:nodetypes="cccccc" />
      <path
         style="fill:#000000;fill-opacity:1;stroke:none;display:inline"
         d="m 126.15373,22.399154 -0.57475,0.245462 -3.89712,-2.249986 0.49998,-0.866027 3.89713,2.250006 z"
         id="path4073"
         inkscape:connector-curvature="0"
         sodipodi:nodetypes="cccccc" />
      <path
         sodipodi:type="arc"
         style="fill:#000000;fill-opacity:1;fill-rule:evenodd;stroke:none;display:inline"
         id="path4076"
         sodipodi:cx="19.5"
         sodipodi:cy="4"
         sodipodi:rx="0.5"
         sodipodi:ry="1"
         d="M 20,4 C 20,4.5522847 19.776142,5 19.5,5 19.223858,5 19,4.5522847 19,4 19,3.4477153 19.223858,3 19.5,3 19.776142,3 20,3.4477153 20,4 z"
         transform="matrix(0.20833318,-0.36084365,0.36084365,0.20833318,122.26762,29.536443)" />
      <path
         sodipodi:type="arc"
         style="fill:#000000;fill-opacity:1;fill-rule:evenodd;stroke:none;display:inline"
         id="path4078"
         sodipodi:cx="4"
         sodipodi:cy="18.5"
         sodipodi:rx="1"
         sodipodi:ry="0.5"
         d="M 5,18.5 C 5,18.776142 4.5522847,19 4,19 3.4477153,19 3,18.776142 3,18.5 3,18.223858 3.4477153,18 4,18 c 0.5522847,0 1,0.223858 1,0.5 z"
         transform="matrix(0.20833318,-0.36084365,0.36084365,0.20833318,111.15773,23.362703)" />
      <path
         transform="matrix(0.20833318,-0.36084365,0.36084365,0.20833318,117.82439,11.815707)"
         d="M 5,18.5 C 5,18.776142 4.5522847,19 4,19 3.4477153,19 3,18.776142 3,18.5 3,18.223858 3.4477153,18 4,18 c 0.5522847,0 1,0.223858 1,0.5 z"
         sodipodi:ry="0.5"
         sodipodi:rx="1"
         sodipodi:cy="18.5"
         sodipodi:cx="4"
         id="path4080"
         style="fill:#000000;fill-opacity:1;fill-rule:evenodd;stroke:none;display:inline"
         sodipodi:type="arc" />
      <path
         transform="matrix(0.20833318,-0.36084365,0.36084365,0.20833318,110.72063,22.869782)"
         d="M 20,4 C 20,4.5522847 19.776142,5 19.5,5 19.223858,5 19,4.5522847 19,4 19,3.4477153 19.223858,3 19.5,3 19.776142,3 20,3.4477153 20,4 z"
         sodipodi:ry="1"
         sodipodi:rx="0.5"
         sodipodi:cy="4"
         sodipodi:cx="19.5"
         id="path4082"
         style="fill:#000000;fill-opacity:1;fill-rule:evenodd;stroke:none;display:inline"
         sodipodi:type="arc" />
      <path
         transform="matrix(-0.20833318,-0.36084365,0.36084365,-0.20833318,130.39262,24.536448)"
         d="M 20,4 C 20,4.5522847 19.776142,5 19.5,5 19.223858,5 19,4.5522847 19,4 19,3.4477153 19.223858,3 19.5,3 19.776142,3 20,3.4477153 20,4 z"
         sodipodi:ry="1"
         sodipodi:rx="0.5"
         sodipodi:cy="4"
         sodipodi:cx="19.5"
         id="path4084"
         style="fill:#000000;fill-opacity:1;fill-rule:evenodd;stroke:none;display:inline"
         sodipodi:type="arc" />
      <path
         transform="matrix(-0.20833318,-0.36084365,0.36084365,-0.20833318,119.49106,31.071031)"
         d="M 5,18.5 C 5,18.776142 4.5522847,19 4,19 3.4477153,19 3,18.776142 3,18.5 3,18.223858 3.4477153,18 4,18 c 0.5522847,0 1,0.223858 1,0.5 z"
         sodipodi:ry="0.5"
         sodipodi:rx="1"
         sodipodi:cy="18.5"
         sodipodi:cx="4"
         id="path4086"
         style="fill:#000000;fill-opacity:1;fill-rule:evenodd;stroke:none;display:inline"
         sodipodi:type="arc" />
      <path
         sodipodi:type="arc"
         style="fill:#000000;fill-opacity:1;fill-rule:evenodd;stroke:none;display:inline"
         id="path4088"
         sodipodi:cx="4"
         sodipodi:cy="18.5"
         sodipodi:rx="1"
         sodipodi:ry="0.5"
         d="M 5,18.5 C 5,18.776142 4.5522847,19 4,19 3.4477153,19 3,18.776142 3,18.5 3,18.223858 3.4477153,18 4,18 c 0.5522847,0 1,0.223858 1,0.5 z"
         transform="matrix(-0.20833318,-0.36084365,0.36084365,-0.20833318,112.8244,19.524034)" />
      <path
         sodipodi:type="arc"
         style="fill:#000000;fill-opacity:1;fill-rule:evenodd;stroke:none;display:inline"
         id="path4090"
         sodipodi:cx="19.5"
         sodipodi:cy="4"
         sodipodi:rx="0.5"
         sodipodi:ry="1"
         d="M 20,4 C 20,4.5522847 19.776142,5 19.5,5 19.223858,5 19,4.5522847 19,4 19,3.4477153 19.223858,3 19.5,3 19.776142,3 20,3.4477153 20,4 z"
         transform="matrix(-0.20833318,-0.36084365,0.36084365,-0.20833318,118.84562,31.203109)" />
    </g>
    <g
       id="g4096"
       transform="translate(-102.5,5.5)">
      <path
         sodipodi:type="arc"
         style="fill:#000000;fill-opacity:1;fill-rule:evenodd;stroke:none;display:inline"
         id="path4098"
         sodipodi:cx="20"
         sodipodi:cy="20"
         sodipodi:rx="20"
         sodipodi:ry="20"
         d="M 40,20 C 40,31.045695 31.045695,40 20,40 8.954305,40 0,31.045695 0,20 0,8.954305 8.954305,0 20,0 31.045695,0 40,8.954305 40,20 z"
         transform="matrix(0.475,0,0,0.475,112.5,10.5)" />
      <path
         sodipodi:type="arc"
         style="fill:#ffffff;fill-opacity:1;fill-rule:evenodd;stroke:none;display:inline"
         id="path4100"
         sodipodi:cx="20"
         sodipodi:cy="20"
         sodipodi:rx="19"
         sodipodi:ry="19"
         d="M 39,20 C 39,30.49341 30.49341,39 20,39 9.5065898,39 1,30.49341 1,20 1,9.5065898 9.5065898,1 20,1 30.49341,1 39,9.5065898 39,20 z"
         transform="matrix(0.44736842,0,0,0.44736842,113.05263,11.052632)" />
      <g
         transform="matrix(0.41666666,0,0,0.41666666,71.166666,11.666667)"
         id="g4102">
        <path
           transform="translate(102,0)"
           d="M 38,20 C 38,29.941125 29.941125,38 20,38 10.058875,38 2,29.941125 2,20 2,10.058875 10.058875,2 20,2 c 9.941125,0 18,8.058875 18,18 z"
           sodipodi:ry="18"
           sodipodi:rx="18"
           sodipodi:cy="20"
           sodipodi:cx="20"
           id="path4104"
           style="fill:url(#linearGradient4136);fill-opacity:1;fill-rule:evenodd;stroke:none;display:inline"
           sodipodi:type="arc" />
        <path
           transform="translate(102,0)"
           sodipodi:end="6.8126635"
           sodipodi:start="4.7123949"
           d="M 20.000107,2 C 29.941232,2.0000588 38.000059,10.058981 38,20.000107 c -1.9e-5,3.195518 -0.850724,6.333429 -2.464727,9.091388 L 20,20 z"
           sodipodi:ry="18"
           sodipodi:rx="18"
           sodipodi:cy="20"
           sodipodi:cx="20"
           id="path4106"
           style="fill:url(#linearGradient4138);fill-opacity:1;fill-rule:evenodd;stroke:none;display:inline"
           sodipodi:type="arc" />
      </g>
      <rect
         style="fill:#000000;fill-opacity:1;fill-rule:evenodd;stroke:none;display:inline"
         id="rect4108"
         width="1.249999"
         height="0.41666639"
         x="114.50001"
         y="19.791655" />
      <rect
         style="fill:#000000;fill-opacity:1;fill-rule:evenodd;stroke:none;display:inline"
         id="rect4110"
         width="1.249999"
         height="0.41666639"
         x="128.25"
         y="19.791655" />
      <rect
         style="fill:#000000;fill-opacity:1;fill-rule:evenodd;stroke:none;display:inline"
         id="rect4112"
         width="0.41666639"
         height="1.249999"
         x="121.79166"
         y="26.249981" />
      <path
         sodipodi:type="arc"
         style="fill:#000000;fill-opacity:1;fill-rule:evenodd;stroke:none;display:inline"
         id="path4114"
         sodipodi:cx="20"
         sodipodi:cy="20"
         sodipodi:rx="1"
         sodipodi:ry="1"
         d="m 21,20 c 0,0.552285 -0.447715,1 -1,1 -0.552285,0 -1,-0.447715 -1,-1 0,-0.552285 0.447715,-1 1,-1 0.552285,0 1,0.447715 1,1 z"
         transform="matrix(0.5,0,0,0.5,112,10)" />
      <path
         sodipodi:nodetypes="cccccc"
         inkscape:connector-curvature="0"
         id="path4116"
         d="m 122,12.5 0.5,0.416667 0,7.083331 -1,0 0,-7.083331 z"
         style="fill:#000000;fill-opacity:1;stroke:none;display:inline" />
      <path
         sodipodi:nodetypes="cccccc"
         inkscape:connector-curvature="0"
         id="path4118"
         d="m 126.15373,22.399154 -0.57475,0.245462 -3.89712,-2.249986 0.49998,-0.866027 3.89713,2.250006 z"
         style="fill:#000000;fill-opacity:1;stroke:none;display:inline" />
      <path
         transform="matrix(0.20833318,-0.36084365,0.36084365,0.20833318,122.26762,29.536443)"
         d="M 20,4 C 20,4.5522847 19.776142,5 19.5,5 19.223858,5 19,4.5522847 19,4 19,3.4477153 19.223858,3 19.5,3 19.776142,3 20,3.4477153 20,4 z"
         sodipodi:ry="1"
         sodipodi:rx="0.5"
         sodipodi:cy="4"
         sodipodi:cx="19.5"
         id="path4120"
         style="fill:#000000;fill-opacity:1;fill-rule:evenodd;stroke:none;display:inline"
         sodipodi:type="arc" />
      <path
         transform="matrix(0.20833318,-0.36084365,0.36084365,0.20833318,111.15773,23.362703)"
         d="M 5,18.5 C 5,18.776142 4.5522847,19 4,19 3.4477153,19 3,18.776142 3,18.5 3,18.223858 3.4477153,18 4,18 c 0.5522847,0 1,0.223858 1,0.5 z"
         sodipodi:ry="0.5"
         sodipodi:rx="1"
         sodipodi:cy="18.5"
         sodipodi:cx="4"
         id="path4122"
         style="fill:#000000;fill-opacity:1;fill-rule:evenodd;stroke:none;display:inline"
         sodipodi:type="arc" />
      <path
         sodipodi:type="arc"
         style="fill:#000000;fill-opacity:1;fill-rule:evenodd;stroke:none;display:inline"
         id="path4124"
         sodipodi:cx="4"
         sodipodi:cy="18.5"
         sodipodi:rx="1"
         sodipodi:ry="0.5"
         d="M 5,18.5 C 5,18.776142 4.5522847,19 4,19 3.4477153,19 3,18.776142 3,18.5 3,18.223858 3.4477153,18 4,18 c 0.5522847,0 1,0.223858 1,0.5 z"
         transform="matrix(0.20833318,-0.36084365,0.36084365,0.20833318,117.82439,11.815707)" />
      <path
         sodipodi:type="arc"
         style="fill:#000000;fill-opacity:1;fill-rule:evenodd;stroke:none;display:inline"
         id="path4126"
         sodipodi:cx="19.5"
         sodipodi:cy="4"
         sodipodi:rx="0.5"
         sodipodi:ry="1"
         d="M 20,4 C 20,4.5522847 19.776142,5 19.5,5 19.223858,5 19,4.5522847 19,4 19,3.4477153 19.223858,3 19.5,3 19.776142,3 20,3.4477153 20,4 z"
         transform="matrix(0.20833318,-0.36084365,0.36084365,0.20833318,110.72063,22.869782)" />
      <path
         sodipodi:type="arc"
         style="fill:#000000;fill-opacity:1;fill-rule:evenodd;stroke:none;display:inline"
         id="path4128"
         sodipodi:cx="19.5"
         sodipodi:cy="4"
         sodipodi:rx="0.5"
         sodipodi:ry="1"
         d="M 20,4 C 20,4.5522847 19.776142,5 19.5,5 19.223858,5 19,4.5522847 19,4 19,3.4477153 19.223858,3 19.5,3 19.776142,3 20,3.4477153 20,4 z"
         transform="matrix(-0.20833318,-0.36084365,0.36084365,-0.20833318,130.39262,24.536448)" />
      <path
         sodipodi:type="arc"
         style="fill:#000000;fill-opacity:1;fill-rule:evenodd;stroke:none;display:inline"
         id="path4130"
         sodipodi:cx="4"
         sodipodi:cy="18.5"
         sodipodi:rx="1"
         sodipodi:ry="0.5"
         d="M 5,18.5 C 5,18.776142 4.5522847,19 4,19 3.4477153,19 3,18.776142 3,18.5 3,18.223858 3.4477153,18 4,18 c 0.5522847,0 1,0.223858 1,0.5 z"
         transform="matrix(-0.20833318,-0.36084365,0.36084365,-0.20833318,119.49106,31.071031)" />
      <path
         transform="matrix(-0.20833318,-0.36084365,0.36084365,-0.20833318,112.8244,19.524034)"
         d="M 5,18.5 C 5,18.776142 4.5522847,19 4,19 3.4477153,19 3,18.776142 3,18.5 3,18.223858 3.4477153,18 4,18 c 0.5522847,0 1,0.223858 1,0.5 z"
         sodipodi:ry="0.5"
         sodipodi:rx="1"
         sodipodi:cy="18.5"
         sodipodi:cx="4"
         id="path4132"
         style="fill:#000000;fill-opacity:1;fill-rule:evenodd;stroke:none;display:inline"
         sodipodi:type="arc" />
      <path
         transform="matrix(-0.20833318,-0.36084365,0.36084365,-0.20833318,118.84562,31.203109)"
         d="M 20,4 C 20,4.5522847 19.776142,5 19.5,5 19.223858,5 19,4.5522847 19,4 19,3.4477153 19.223858,3 19.5,3 19.776142,3 20,3.4477153 20,4 z"
         sodipodi:ry="1"
         sodipodi:rx="0.5"
         sodipodi:cy="4"
         sodipodi:cx="19.5"
         id="path4134"
         style="fill:#000000;fill-opacity:1;fill-rule:evenodd;stroke:none;display:inline"
         sodipodi:type="arc" />
    </g>
  </g>
</svg>
