<?xml version="1.0" encoding="UTF-8" standalone="no"?>
<!-- Created with Inkscape (http://www.inkscape.org/) -->

<svg
   xmlns:dc="http://purl.org/dc/elements/1.1/"
   xmlns:cc="http://creativecommons.org/ns#"
   xmlns:rdf="http://www.w3.org/1999/02/22-rdf-syntax-ns#"
   xmlns:svg="http://www.w3.org/2000/svg"
   xmlns="http://www.w3.org/2000/svg"
   xmlns:xlink="http://www.w3.org/1999/xlink"
   xmlns:sodipodi="http://sodipodi.sourceforge.net/DTD/sodipodi-0.dtd"
   xmlns:inkscape="http://www.inkscape.org/namespaces/inkscape"
   width="40"
   height="40"
   id="svg2"
   version="1.1"
   inkscape:version="0.48.4 r9939"
   sodipodi:docname="task.svg">
  <defs
     id="defs4">
    <linearGradient
       id="linearGradient4053">
      <stop
         style="stop-color:#007a05;stop-opacity:1;"
         offset="0"
         id="stop4055" />
      <stop
         style="stop-color:#00e005;stop-opacity:1;"
         offset="1"
         id="stop4057" />
    </linearGradient>
    <linearGradient
       id="linearGradient3977">
      <stop
         id="stop3979"
         offset="0"
         style="stop-color:#1a2137;stop-opacity:1;" />
      <stop
         id="stop3981"
         offset="1"
         style="stop-color:#475799;stop-opacity:1;" />
    </linearGradient>
    <linearGradient
       id="linearGradient4096">
      <stop
         id="stop4098"
         offset="0"
         style="stop-color:#ffff77;stop-opacity:1;" />
      <stop
         style="stop-color:#ffff77;stop-opacity:0.49803922;"
         offset="0"
         id="stop4102" />
      <stop
         id="stop4100"
         offset="1"
         style="stop-color:#ffff77;stop-opacity:0;" />
    </linearGradient>
    <linearGradient
       id="linearGradient3957">
      <stop
         style="stop-color:#ff3d24;stop-opacity:1;"
         offset="0"
         id="stop3959" />
      <stop
         style="stop-color:#ff0000;stop-opacity:1;"
         offset="1"
         id="stop3961" />
    </linearGradient>
    <linearGradient
       id="linearGradient3761">
      <stop
         style="stop-color:#ffffff;stop-opacity:1;"
         offset="0"
         id="stop3763" />
      <stop
         style="stop-color:#c9d2ff;stop-opacity:1;"
         offset="1"
         id="stop3765" />
    </linearGradient>
    <linearGradient
       inkscape:collect="always"
       xlink:href="#linearGradient3761"
       id="linearGradient3876"
       x1="16"
       y1="15"
       x2="30"
       y2="31"
       gradientUnits="userSpaceOnUse"
       gradientTransform="translate(2,-8)" />
    <linearGradient
       inkscape:collect="always"
       xlink:href="#linearGradient4053"
       id="linearGradient4071"
       x1="9"
       y1="30"
       x2="0"
       y2="20"
       gradientUnits="userSpaceOnUse" />
    <linearGradient
       inkscape:collect="always"
       xlink:href="#linearGradient3977"
       id="linearGradient4089"
       x1="27"
       y1="24"
       x2="21"
       y2="9"
       gradientUnits="userSpaceOnUse" />
  </defs>
  <sodipodi:namedview
     id="base"
     pagecolor="#c4c4c4"
     bordercolor="#666666"
     borderopacity="1.0"
     inkscape:pageopacity="1"
     inkscape:pageshadow="2"
     inkscape:zoom="20"
     inkscape:cx="14.151504"
     inkscape:cy="20.874648"
     inkscape:document-units="px"
     inkscape:current-layer="layer2"
     showgrid="true"
     inkscape:window-width="1920"
     inkscape:window-height="1028"
     inkscape:window-x="0"
     inkscape:window-y="0"
     inkscape:window-maximized="1">
    <inkscape:grid
       type="xygrid"
       id="grid2985"
       empspacing="5"
       visible="true"
       enabled="true"
       snapvisiblegridlinesonly="true" />
  </sodipodi:namedview>
  <metadata
     id="metadata7">
    <rdf:RDF>
      <cc:Work
         rdf:about="">
        <dc:format>image/svg+xml</dc:format>
        <dc:type
           rdf:resource="http://purl.org/dc/dcmitype/StillImage" />
        <dc:title></dc:title>
      </cc:Work>
    </rdf:RDF>
  </metadata>
  <g
     inkscape:groupmode="layer"
     id="layer1"
     inkscape:label="Layer1">
    <path
       style="font-size:medium;font-style:normal;font-variant:normal;font-weight:normal;font-stretch:normal;text-indent:0;text-align:start;text-decoration:none;line-height:normal;letter-spacing:normal;word-spacing:normal;text-transform:none;direction:ltr;block-progression:tb;writing-mode:lr-tb;text-anchor:start;baseline-shift:baseline;color:#000000;fill:#000000;fill-opacity:1;fill-rule:evenodd;stroke:none;stroke-width:2;marker:none;visibility:visible;display:inline;overflow:visible;enable-background:accumulate;font-family:Sans;-inkscape-font-specification:Sans"
       d="M 10.90625,6 C 10.414666,6.04633 9.9978709,6.506242 10,7 l 0,20 c 5.2e-5,0.523584 0.476416,0.999948 1,1 l 24,0 c 0.523584,-5.2e-5 0.999948,-0.476416 1,-1 L 36,7 C 35.999948,6.476416 35.523584,6.000052 35,6 L 11,6 C 10.96877,5.9985 10.93748,5.9985 10.90625,6 z"
       id="rect3040"
       inkscape:connector-curvature="0"
       sodipodi:nodetypes="cccccccccc" />
    <path
       style="font-size:medium;font-style:normal;font-variant:normal;font-weight:normal;font-stretch:normal;text-indent:0;text-align:start;text-decoration:none;line-height:normal;letter-spacing:normal;word-spacing:normal;text-transform:none;direction:ltr;block-progression:tb;writing-mode:lr-tb;text-anchor:start;baseline-shift:baseline;color:#000000;fill:#ffffff;fill-opacity:1;fill-rule:evenodd;stroke:none;stroke-width:2;marker:none;visibility:visible;display:inline;overflow:visible;enable-background:accumulate;font-family:Sans;-inkscape-font-specification:Sans"
       d="M 11.90625,7 C 11.414666,7.04633 10.997871,7.506242 11,8 l 0,17 c 5.2e-5,0.523584 0.476416,0.999948 1,1 l 21,0 c 0.523584,-5.2e-5 0.999948,-0.476416 1,-1 L 34,8 C 33.999948,7.476416 33.523584,7.000052 33,7 L 12,7 C 11.96877,6.9985 11.93748,6.9985 11.90625,7 z"
       inkscape:connector-curvature="0"
       sodipodi:nodetypes="cccccccccc"
       id="path21" />
    <path
       style="font-size:medium;font-style:normal;font-variant:normal;font-weight:normal;font-stretch:normal;text-indent:0;text-align:start;text-decoration:none;line-height:normal;letter-spacing:normal;word-spacing:normal;text-transform:none;direction:ltr;block-progression:tb;writing-mode:lr-tb;text-anchor:start;baseline-shift:baseline;color:#000000;fill:url(#linearGradient3876);fill-opacity:1;fill-rule:evenodd;stroke:none;stroke-width:2;marker:none;visibility:visible;display:inline;overflow:visible;enable-background:accumulate;font-family:Sans;-inkscape-font-specification:Sans"
       d="M 12.90625,8 C 12.414666,8.04633 11.997871,8.506242 12,9 l 0,15 c 5.2e-5,0.523584 0.476416,0.999948 1,1 l 19,0 c 0.523584,-5.2e-5 0.999948,-0.476416 1,-1 L 33,9 C 32.999948,8.476416 32.523584,8.000052 32,8 L 13,8 C 12.96877,7.9985 12.93748,7.9985 12.90625,8 z"
       id="rect3042"
       inkscape:connector-curvature="0"
       sodipodi:nodetypes="cccccccccc" />
  </g>
  <g
     inkscape:groupmode="layer"
     id="layer2"
     inkscape:label="mark"
     style="display:inline">
    <path
       style="fill:#475799;fill-opacity:1;stroke:none"
       d="M 36,1 C 27.686139,1 22.792635,13.780345 22.09375,21.25 21.804932,16.703043 17.195491,12 11,12 l -2,4 c 7,0 10.018,7.319933 10,9 l 7,0 C 26,18 30,5 39,5 L 36,1 z"
       id="path3878"
       inkscape:connector-curvature="0" />
    <path
       style="font-size:medium;font-style:normal;font-variant:normal;font-weight:normal;font-stretch:normal;text-indent:0;text-align:start;text-decoration:none;line-height:normal;letter-spacing:normal;word-spacing:normal;text-transform:none;direction:ltr;block-progression:tb;writing-mode:lr-tb;text-anchor:start;baseline-shift:baseline;color:#000000;fill:#0c1015;fill-opacity:1;stroke:none;stroke-width:2;marker:none;visibility:visible;display:inline;overflow:visible;enable-background:accumulate;font-family:Sans;-inkscape-font-specification:Sans"
       d="M 36,1 C 27.741817,1 22.84382,13.604009 22.09375,21.09375 21.710938,16.595703 17.125,12 11,12 l -2,4 c 7,0 10.018,7.319933 10,9 l 7,0 C 26,18 30,5 39,5 z M 35.5625,2.09375 37.21875,4.3125 C 33.191983,5.078613 30.182767,8.154409 28.25,11.90625 26.208476,15.869208 25.149676,21.410531 25,25 l -5,0 c -0.106152,-0.480325 -0.401648,-1.897429 -0.65625,-2.5 -0.42347,-1.002234 -1.058816,-2.148443 -1.9375,-3.25 -1.507217,-1.889513 -3.828587,-3.596335 -6.875,-4.0625 l 1.03125,-2.09375 c 5.379142,0.295478 9.291187,4.439358 9.53125,8.21875 l 2,0.03125 c 0.334204,-3.571959 1.708265,-8.559677 3.96875,-12.53125 2.165886,-3.805366 5.057185,-6.493327 8.5,-6.71875 z"
       id="path3009"
       inkscape:connector-curvature="0"
       sodipodi:nodetypes="ccccccccccsccssccccsc" />
    <path
       style="font-size:medium;font-style:normal;font-variant:normal;font-weight:normal;font-stretch:normal;text-indent:0;text-align:start;text-decoration:none;line-height:normal;letter-spacing:normal;word-spacing:normal;text-transform:none;direction:ltr;block-progression:tb;writing-mode:lr-tb;text-anchor:start;baseline-shift:baseline;color:#000000;fill:url(#linearGradient4089);fill-opacity:1;stroke:none;stroke-width:3;marker:none;visibility:visible;display:inline;overflow:visible;enable-background:accumulate;font-family:Sans;-inkscape-font-specification:Sans"
       d="M 35.34375,2.625 36.375,3.96875 C 32.541119,5.0078657 29.634951,8.0891383 27.78125,11.6875 25.781639,15.569098 24.214136,21.403 24,25 l -3,0 c -0.115709,-0.388852 -0.994709,-2.231218 -1.1875,-2.6875 -0.440314,-1.042099 -1.088786,-2.232663 -2,-3.375 -1.452703,-1.821171 -3.670978,-3.495758 -6.53125,-4.125 l 0.5625,-1.15625 C 16.808552,14.091433 20.783902,17.597894 21,21 l 2,0 c 0.326585,-3.490525 2.284258,-8.044538 4.5,-11.9375 2.066657,-3.6310251 4.745413,-6.1081452 7.84375,-6.4375 z"
       id="path4075"
       inkscape:connector-curvature="0"
       sodipodi:nodetypes="ccsccssccccsc" />
  </g>
  <g
     inkscape:groupmode="layer"
     id="layer3"
     inkscape:label="play">
    <path
       style="fill:#00e005;fill-opacity:1;stroke:none"
       d="m 1.5,12.5 13,13 -13,13 z"
       id="path4032"
       inkscape:connector-curvature="0"
       sodipodi:nodetypes="cccc" />
    <path
       style="font-size:medium;font-style:normal;font-variant:normal;font-weight:normal;font-stretch:normal;text-indent:0;text-align:start;text-decoration:none;line-height:normal;letter-spacing:normal;word-spacing:normal;text-transform:none;direction:ltr;block-progression:tb;writing-mode:lr-tb;text-anchor:start;baseline-shift:baseline;color:#000000;fill:url(#linearGradient4071);fill-opacity:1;stroke:none;stroke-width:3;marker:none;visibility:visible;display:inline;overflow:visible;enable-background:accumulate;font-family:Sans;-inkscape-font-specification:Sans"
       d="M 3,16.125 12.375,25.5 3,34.875 z"
       id="path4059"
       inkscape:connector-curvature="0"
       sodipodi:nodetypes="cccc" />
    <path
       style="font-size:medium;font-style:normal;font-variant:normal;font-weight:normal;font-stretch:normal;text-indent:0;text-align:start;text-decoration:none;line-height:normal;letter-spacing:normal;word-spacing:normal;text-transform:none;direction:ltr;block-progression:tb;writing-mode:lr-tb;text-anchor:start;baseline-shift:baseline;color:#000000;fill:#004c01;fill-opacity:1;fill-rule:nonzero;stroke:none;stroke-width:1;marker:none;visibility:visible;display:inline;overflow:visible;enable-background:accumulate;font-family:Sans;-inkscape-font-specification:Sans"
       d="M 1,11.28125 1,12.5 l 0,26 0,1.21875 0.84375,-0.875 13,-13 0.375,-0.34375 -0.375,-0.34375 -13,-13 L 1,11.28125 z M 2,13.6875 13.8125,25.5 2,37.3125 2,13.6875 z"
       id="path4036"
       inkscape:connector-curvature="0" />
  </g>
</svg>
